<?xml version="1.0" encoding="utf-8"?>
<!-- Generator: Adobe Illustrator 19.2.0, SVG Export Plug-In . SVG Version: 6.00 Build 0)  -->
<svg version="1.1"
	 id="svg2" inkscape:version="0.48.1 " sodipodi:docname="lemmling_Cartoon_penguin_1_black_white_line_art_coloring_book_colouring.svg" xmlns:cc="http://creativecommons.org/ns#" xmlns:dc="http://purl.org/dc/elements/1.1/" xmlns:inkscape="http://www.inkscape.org/namespaces/inkscape" xmlns:rdf="http://www.w3.org/1999/02/22-rdf-syntax-ns#" xmlns:sodipodi="http://sodipodi.sourceforge.net/DTD/sodipodi-0.dtd" xmlns:svg="http://www.w3.org/2000/svg"
	 xmlns="http://www.w3.org/2000/svg" xmlns:xlink="http://www.w3.org/1999/xlink" x="0px" y="0px" viewBox="0 0 369.4 370.1"
	 enable-background="new 0 0 369.4 370.1" xml:space="preserve">
<path id="path3806" inkscape:connector-curvature="0" fill="#FFFFFF" stroke="#000000" stroke-width="5" d="M148.2,307.1
	C100.2,312.1,45,351,66.9,359.5s85.5,12,97.6,2.1c6.2-5.1,17.2-17.8,18.5-29.8c1.3,12,12.3,24.7,18.5,29.8c12,9.9,75.7,6.4,97.6-2.1
	c21.9-8.5-33.2-47.4-81.3-52.3c-24.8,2.4-33.7,10.7-34.8,20.2C181.9,317.8,173,309.5,148.2,307.1L148.2,307.1z"/>
<path id="path2385" inkscape:connector-curvature="0" fill="#FFFFFF" stroke="#000000" stroke-width="5" stroke-linecap="round" d="
	M346.2,168.1c0,91.4-74.1,165.6-165.6,165.6C89.2,333.6,15,259.5,15,168.1C15,76.6,89.2,2.5,180.6,2.5S346.2,76.6,346.2,168.1
	C346.2,168.1,346.2,168.1,346.2,168.1z"/>
<path id="path2387" inkscape:connector-curvature="0" fill="#FFFFFF" stroke="#000000" stroke-width="5" stroke-linecap="round" d="
	M146.6,57.9c-22.9,0-41.6,21.4-41.6,47.8s18.6,47.8,41.6,47.8c13.5,0,25.4-7.4,33-18.9c7.6,11.5,19.6,18.9,33.1,18.9
	c22.9,0,41.6-21.4,41.6-47.8c0-26.4-18.6-47.8-41.6-47.8c-13.5,0-25.5,7.4-33.1,18.9C172.1,65.3,160.1,57.9,146.6,57.9z"/>
<radialGradient id="path3167_1_" cx="198.9914" cy="296.9483" r="73.044" gradientTransform="matrix(-4.782054e-06 1.6915 2.1334 -7.479046e-07 -451.3189 -126.4877)" gradientUnits="userSpaceOnUse">
	<stop  offset="0" style="stop-color:#FFFFFF"/>
	<stop  offset="1" style="stop-color:#FFFFFF;stop-opacity:0"/>
</radialGradient>
<path id="path3167" inkscape:connector-curvature="0" fill="url(#path3167_1_)" stroke="#000000" stroke-width="5" stroke-linecap="round" d="
	M262.4,250.8c0,44.3-35.9,80.3-80.3,80.3s-80.3-35.9-80.3-80.3c0,0,0,0,0,0c0-44.3,35.9-80.3,80.3-80.3
	C226.5,170.6,262.4,206.5,262.4,250.8C262.4,250.8,262.4,250.8,262.4,250.8z"/>
<path id="path2391" inkscape:connector-curvature="0" fill="#FFFFFF" stroke="#000000" stroke-width="5" d="M179.3,132.1
	c-14.5,0-30.2,12-29.6,19.5s25.8,39,31.5,39c5.7,0,27.7-30.8,27.1-39.7S188.8,131.4,179.3,132.1L179.3,132.1z"/>
<path id="path3163" inkscape:connector-curvature="0" stroke="#000000" stroke-width="5" stroke-linecap="round" d="M172.4,114.2
	c0,5.7-4.7,10.4-10.4,10.4c-5.7,0-10.4-4.7-10.4-10.4s4.7-10.4,10.4-10.4C167.7,103.8,172.4,108.4,172.4,114.2z"/>
<path id="path3165" inkscape:connector-curvature="0" stroke="#000000" stroke-width="5" stroke-linecap="round" d="M209.6,114.2
	c0,5.7-4.7,10.4-10.4,10.4c-5.7,0-10.4-4.7-10.4-10.4s4.7-10.4,10.4-10.4C204.9,103.8,209.6,108.4,209.6,114.2z"/>
<path id="path3169" inkscape:connector-curvature="0" fill="#FFFFFF" stroke="#000000" stroke-width="5" d="M55.7,131
	c48.1,17.3-14.2,94.1,37.8,161.2c9.6,12.4-57.9,2.1-81.7-66.6C-11.4,158.9,10.7,118.1,55.7,131L55.7,131z"/>
<path id="path3793" inkscape:connector-curvature="0" fill="#FFFFFF" stroke="#000000" stroke-width="5" d="M55.7,131
	c48.1,17.3-42.6,102.1,37.8,161.2c22.6,16.6-57.9,2.1-81.7-66.6C-11.4,158.9,10.7,118.1,55.7,131L55.7,131z"/>
<path id="path3800" inkscape:connector-curvature="0" fill="#FFFFFF" stroke="#000000" stroke-width="5" d="M313.7,131
	c-48.1,17.3,14.2,94.1-37.8,161.2c-9.6,12.4,57.9,2.1,81.7-66.6C380.8,158.9,358.7,118.1,313.7,131L313.7,131z"/>
<path id="path3802" inkscape:connector-curvature="0" fill="#FFFFFF" stroke="#000000" stroke-width="5" d="M313.7,131
	c-48.1,17.3,42.6,102.1-37.8,161.2c-22.6,16.6,57.9,2.1,81.7-66.6C380.8,158.9,358.7,118.1,313.7,131L313.7,131z"/>
</svg>
