<?xml version="1.0" encoding="iso-8859-1"?>
<!-- Generator: Adobe Illustrator 17.1.0, SVG Export Plug-In . SVG Version: 6.00 Build 0)  -->
<!DOCTYPE svg PUBLIC "-//W3C//DTD SVG 1.1//EN" "http://www.w3.org/Graphics/SVG/1.1/DTD/svg11.dtd">
<svg version="1.1" id="Capa_1" xmlns="http://www.w3.org/2000/svg" xmlns:xlink="http://www.w3.org/1999/xlink" x="0px" y="0px"
	 viewBox="0 0 296.438 296.438" style="enable-background:new 0 0 296.438 296.438;" xml:space="preserve">
<g>
	<path d="M223.847, 150.669 c0-62.06-74.778-150.308-74.778-150.308 S74.292, 88.61,74.292,150.669c0, 41.299,33.479,74.776,74.776,74.776S223.847,191.968,223.847, 150.669z"/>
	<path d="M24.667,219.567c-14.039,14.04-14.035,36.81,0.002,50.846c21.085,21.087,76.508,25.663,76.508,25.663s-4.577-55.422-25.662-76.509C61.478,205.532,38.708,205.527,24.667,219.567z"/>
	<path d="M39.639,138.554c-9.065-9.065-23.771-9.067-32.839,0c-9.067,9.067-9.065,23.773,0,32.838c13.618,13.618,49.413,16.574,49.413,16.574S53.257,152.17,39.639,138.554z"/>
	<path d="M220.923,219.567c-21.085,21.087-25.662,76.509-25.662,76.509s55.423-4.576,76.508-25.663c14.037-14.035,14.041-36.806,0.002-50.846C257.729,205.527,234.96,205.532,220.923,219.567z"/>
	<path d="M289.638,138.554c-9.068-9.067-23.773-9.065-32.839,0c-13.618,13.616-16.574,49.412-16.574,49.412s35.795-2.956,49.413-16.574C298.703,162.327,298.705,147.622,289.638,138.554z"/>
</g>
<g>
</g>
<g>
</g>
<g>
</g>
<g>
</g>
<g>
</g>
<g>
</g>
<g>
</g>
<g>
</g>
<g>
</g>
<g>
</g>
<g>
</g>
<g>
</g>
<g>
</g>
<g>
</g>
<g>
</g>
</svg>
