<svg xmlns="http://www.w3.org/2000/svg" viewBox="0 0 50.55 62.22"><defs><style>.cls-1{fill:#f3bf01;}</style></defs><title>Asset 116</title><g id="Layer_2" data-name="Layer 2"><g id="Layer_1-2" data-name="Layer 1"><path class="cls-1" d="M25.28,50.55a1.93,1.93,0,0,1-1.56-.78C23.06,48.89,7.78,28.15,7.78,17.5a17.5,17.5,0,0,1,35,0c0,10.65-15.29,31.39-15.94,32.27A2,2,0,0,1,25.28,50.55Zm0-46.66A13.62,13.62,0,0,0,11.67,17.5c0,7,8.73,20.84,13.61,27.78,4.87-6.94,13.61-20.84,13.61-27.78A13.62,13.62,0,0,0,25.28,3.89Z"/><path class="cls-1" d="M25.28,25.28a7.78,7.78,0,1,1,7.77-7.78A7.79,7.79,0,0,1,25.28,25.28Zm0-11.67a3.89,3.89,0,1,0,3.89,3.89A3.89,3.89,0,0,0,25.28,13.61Z"/><path class="cls-1" d="M25.28,62.22C13,62.22,0,58.42,0,51.39c0-3.49,3.28-6.51,9.23-8.51a1.94,1.94,0,0,1,2.46,1.22,2,2,0,0,1-1.22,2.47c-4.86,1.62-6.58,3.61-6.58,4.82,0,2.83,8.33,6.94,21.39,6.94s21.38-4.11,21.38-6.94c0-1.21-1.72-3.2-6.57-4.83a1.94,1.94,0,1,1,1.23-3.68c6,2,9.23,5,9.23,8.51C50.55,58.42,37.53,62.22,25.28,62.22Z"/></g></g></svg>