<?xml version="1.0" encoding="utf-8"?>
<!-- Generator: Adobe Illustrator 22.1.0, SVG Export Plug-In . SVG Version: 6.00 Build 0)  -->
<svg version="1.1" id="Layer_2" xmlns="http://www.w3.org/2000/svg" xmlns:xlink="http://www.w3.org/1999/xlink" x="0px" y="0px"
	 width="369.4px" height="370.1px" viewBox="0 0 369.4 370.1" style="enable-background:new 0 0 369.4 370.1;" xml:space="preserve"
	>
<style type="text/css">
	.st0{fill:#FFFFFF;stroke:#000000;stroke-width:2;stroke-linecap:round;stroke-linejoin:round;}
	.st1{fill:none;stroke:#000000;stroke-width:3;stroke-linecap:round;stroke-linejoin:round;}
	.st2{fill:#FFFFFF;stroke:#000000;stroke-width:2;stroke-linecap:round;stroke-linejoin:round;stroke-miterlimit:10;}
	.st3{fill:none;stroke:#000000;stroke-width:3;stroke-linecap:round;stroke-linejoin:round;stroke-miterlimit:10;}
	.st4{fill:#FFFFFF;stroke:#000000;stroke-width:3;stroke-linecap:round;stroke-linejoin:round;stroke-miterlimit:10;}
	.st5{fill:none;stroke:#000000;stroke-width:2;stroke-linecap:round;stroke-linejoin:round;}
	.st6{fill:#FFFFFF;stroke:#000000;stroke-width:3;stroke-linecap:round;stroke-linejoin:round;}
	.st7{fill:#FFFFFF;}
	.st8{fill:none;stroke:#000000;stroke-width:2;stroke-linecap:round;stroke-linejoin:round;stroke-miterlimit:10;}
	.st9{fill:#FFFFFF;stroke:#000000;stroke-linecap:round;stroke-linejoin:round;}
	.st10{fill:none;stroke:#000000;stroke-linecap:round;stroke-linejoin:round;}
	.st11{fill:#FFFFFF;stroke:#000000;stroke-width:2;stroke-miterlimit:10;}
	.st12{fill:#FFFFFF;stroke:#000000;stroke-width:2;stroke-linecap:round;stroke-miterlimit:10;}
	.st13{fill:none;stroke:#000000;stroke-width:2;stroke-linecap:round;stroke-miterlimit:10;}
	.st14{fill:none;stroke:#000000;stroke-width:3;stroke-linecap:round;stroke-miterlimit:10;}
	.st15{fill:none;stroke:#000000;stroke-width:4;stroke-linecap:round;stroke-linejoin:round;}
	.st16{fill:#FFFFFF;stroke:#000000;stroke-width:3;stroke-linejoin:round;stroke-miterlimit:10;}
	.st17{fill:#FFFFFF;stroke:#000000;stroke-width:0.7;stroke-linecap:round;stroke-linejoin:round;}
	.st18{fill:#FFFFFF;stroke:#000000;stroke-linecap:round;stroke-linejoin:round;stroke-miterlimit:10;}
	.st19{fill:none;stroke:#000000;stroke-linecap:round;stroke-linejoin:round;stroke-miterlimit:10;}
	.st20{fill:#FFFFFF;stroke:#000000;stroke-width:1.6;stroke-linecap:round;stroke-linejoin:round;}
	.st21{fill:none;stroke:#000000;stroke-width:2.4;stroke-linecap:round;stroke-linejoin:round;}
</style>
<path class="st0" d="M51.3,72.8L28.1,96.1L4.8,72.8l8.9-8.9l5.2,5.2l-2,2c-1,1-1,2.5,0,3.5l9.3,9.3c1,1,2.5,1,3.5,0l9.3-9.3
	c1-1,1-2.5,0-3.5l-9.3-9.3c-1-1-2.5-1-3.5,0l-2.2,2.2L19,58.7l9.1-9.1l9.1,9.1l5.2,5.2L51.3,72.8z"/>
<path class="st0" d="M51.3,55l-8.9,8.9l-5.2-5.2l2-2c1-1,1-2.5,0-3.5l-9.3-9.3c-1-1-2.5-1-3.5,0L17,53.3c-1,1-1,2.5,0,3.5l2,2
	l5.2,5.2l2.2,2.2c1,1,2.5,1,3.5,0l2.2-2.2l5.2,5.2l-9.1,9.1L19,69.1l-5.2-5.2L4.8,55l23.2-23.2L51.3,55z"/>
<path class="st0" d="M51.3,133.1l-23.2,23.2L4.8,133.1l8.9-8.9l5.2,5.2l-2,2c-1,1-1,2.5,0,3.5l9.3,9.3c1,1,2.5,1,3.5,0l9.3-9.3
	c1-1,1-2.5,0-3.5l-9.3-9.3c-1-1-2.5-1-3.5,0l-2.2,2.2l-5.2-5.2l9.1-9.1l9.1,9.1l5.2,5.2L51.3,133.1z"/>
<path class="st0" d="M51.3,115.2l-8.9,8.9l-5.2-5.2l2-2c1-1,1-2.5,0-3.5l-9.3-9.3c-1-1-2.5-1-3.5,0l-9.3,9.3c-1,1-1,2.5,0,3.5l2,2
	l5.2,5.2l2.2,2.2c1,1,2.5,1,3.5,0l2.2-2.2l5.2,5.2l-9.1,9.1l-9.1-9.1l-5.2-5.2l-8.9-8.9L28.1,92L51.3,115.2z"/>
<path class="st0" d="M28.6,106.4h-0.6c-1.2,0-2.2-1-2.2-2.2V84.7c0-1.2,1-2.2,2.2-2.2h0.6c1.2,0,2.2,1,2.2,2.2v19.5
	C30.7,105.4,29.8,106.4,28.6,106.4z"/>
<path class="st0" d="M51.3,193.3l-23.2,23.2L4.8,193.3l8.9-8.9l5.2,5.2l-2,2c-1,1-1,2.5,0,3.5l9.3,9.3c1,1,2.5,1,3.5,0l9.3-9.3
	c1-1,1-2.5,0-3.5l-9.3-9.3c-1-1-2.5-1-3.5,0l-2.2,2.2l-5.2-5.2l9.1-9.1l9.1,9.1l5.2,5.2L51.3,193.3z"/>
<path class="st0" d="M51.3,175.5l-8.9,8.9l-5.2-5.2l2-2c1-1,1-2.5,0-3.5l-9.3-9.3c-1-1-2.5-1-3.5,0l-9.3,9.3c-1,1-1,2.5,0,3.5l2,2
	l5.2,5.2l2.2,2.2c1,1,2.5,1,3.5,0l2.2-2.2l5.2,5.2l-9.1,9.1l-9.1-9.1l-5.2-5.2l-8.9-8.9l23.2-23.2L51.3,175.5z"/>
<path class="st0" d="M28.6,166.7h-0.6c-1.2,0-2.2-1-2.2-2.2V145c0-1.2,1-2.2,2.2-2.2h0.6c1.2,0,2.2,1,2.2,2.2v19.5
	C30.7,165.7,29.8,166.7,28.6,166.7z"/>
<path class="st0" d="M51.3,253.6l-23.2,23.2L4.8,253.6l8.9-8.9l5.2,5.2l-2,2c-1,1-1,2.5,0,3.5l9.3,9.3c1,1,2.5,1,3.5,0l9.3-9.3
	c1-1,1-2.5,0-3.5l-9.3-9.3c-1-1-2.5-1-3.5,0l-2.2,2.2l-5.2-5.2l9.1-9.1l9.1,9.1l5.2,5.2L51.3,253.6z"/>
<path class="st0" d="M51.3,235.8l-8.9,8.9l-5.2-5.2l2-2c1-1,1-2.5,0-3.5l-9.3-9.3c-1-1-2.5-1-3.5,0L17,234c-1,1-1,2.5,0,3.5l2,2
	l5.2,5.2l2.2,2.2c1,1,2.5,1,3.5,0l2.2-2.2l5.2,5.2l-9.1,9.1l-9.1-9.1l-5.2-5.2l-8.9-8.9l23.2-23.2L51.3,235.8z"/>
<path class="st0" d="M28.6,226.9h-0.6c-1.2,0-2.2-1-2.2-2.2v-19.5c0-1.2,1-2.2,2.2-2.2h0.6c1.2,0,2.2,1,2.2,2.2v19.5
	C30.7,225.9,29.8,226.9,28.6,226.9z"/>
<path class="st0" d="M51.3,313.8l-23.2,23.2L4.8,313.8l8.9-8.9l5.2,5.2l-2,2c-1,1-1,2.5,0,3.5l9.3,9.3c1,1,2.5,1,3.5,0l9.3-9.3
	c1-1,1-2.5,0-3.5l-9.3-9.3c-1-1-2.5-1-3.5,0l-2.2,2.2l-5.2-5.2l9.1-9.1l9.1,9.1l5.2,5.2L51.3,313.8z"/>
<path class="st0" d="M51.3,296l-8.9,8.9l-5.2-5.2l2-2c1-1,1-2.5,0-3.5l-9.3-9.3c-1-1-2.5-1-3.5,0l-9.3,9.3c-1,1-1,2.5,0,3.5l2,2
	l5.2,5.2l2.2,2.2c1,1,2.5,1,3.5,0l2.2-2.2l5.2,5.2l-9.1,9.1l-9.1-9.1l-5.2-5.2L4.8,296l23.2-23.2L51.3,296z"/>
<path class="st0" d="M28.6,287.2h-0.6c-1.2,0-2.2-1-2.2-2.2v-19.5c0-1.2,1-2.2,2.2-2.2h0.6c1.2,0,2.2,1,2.2,2.2V285
	C30.7,286.2,29.8,287.2,28.6,287.2z"/>
<path class="st0" d="M73,5.3l23.2,23.2L73,51.7l-8.9-8.9l5.2-5.2l2,2c1,1,2.5,1,3.5,0l9.3-9.3c1-1,1-2.5,0-3.5l-9.3-9.3
	c-1-1-2.5-1-3.5,0l-9.3,9.3c-1,1-1,2.5,0,3.5l2.2,2.2l-5.2,5.2l-9.1-9.1l9.1-9.1l5.2-5.2L73,5.3z"/>
<path class="st0" d="M55.2,5.3l8.9,8.9l-5.2,5.2l-2-2c-1-1-2.5-1-3.5,0l-9.3,9.3c-1,1-1,2.5,0,3.5l9.3,9.3c1,1,2.5,1,3.5,0l2-2
	l5.2-5.2l2.2-2.2c1-1,1-2.5,0-3.5l-2.2-2.2l5.2-5.2l9.1,9.1l-9.1,9.1l-5.2,5.2l-8.9,8.9L31.9,28.5L55.2,5.3z"/>
<path class="st0" d="M133.3,5.3l23.2,23.2l-23.2,23.2l-8.9-8.9l5.2-5.2l2,2c1,1,2.5,1,3.5,0l9.3-9.3c1-1,1-2.5,0-3.5l-9.3-9.3
	c-1-1-2.5-1-3.5,0l-9.3,9.3c-1,1-1,2.5,0,3.5l2.2,2.2l-5.2,5.2l-9.1-9.1l9.1-9.1l5.2-5.2L133.3,5.3z"/>
<path class="st0" d="M115.4,5.3l8.9,8.9l-5.2,5.2l-2-2c-1-1-2.5-1-3.5,0l-9.3,9.3c-1,1-1,2.5,0,3.5l9.3,9.3c1,1,2.5,1,3.5,0l2-2
	l5.2-5.2l2.2-2.2c1-1,1-2.5,0-3.5l-2.2-2.2l5.2-5.2l9.1,9.1l-9.1,9.1l-5.2,5.2l-8.9,8.9L92.2,28.5L115.4,5.3z"/>
<path class="st0" d="M106.6,28v0.6c0,1.2-1,2.2-2.2,2.2H84.9c-1.2,0-2.2-1-2.2-2.2V28c0-1.2,1-2.2,2.2-2.2h19.5
	C105.6,25.8,106.6,26.8,106.6,28z"/>
<path class="st0" d="M193.5,5.3l23.2,23.2l-23.2,23.2l-8.9-8.9l5.2-5.2l2,2c1,1,2.5,1,3.5,0l9.3-9.3c1-1,1-2.5,0-3.5l-9.3-9.3
	c-1-1-2.5-1-3.5,0l-9.3,9.3c-1,1-1,2.5,0,3.5l2.2,2.2l-5.2,5.2l-9.1-9.1l9.1-9.1l5.2-5.2L193.5,5.3z"/>
<path class="st0" d="M175.7,5.3l8.9,8.9l-5.2,5.2l-2-2c-1-1-2.5-1-3.5,0l-9.3,9.3c-1,1-1,2.5,0,3.5l9.3,9.3c1,1,2.5,1,3.5,0l2-2
	l5.2-5.2l2.2-2.2c1-1,1-2.5,0-3.5l-2.2-2.2l5.2-5.2l9.1,9.1l-9.1,9.1l-5.2,5.2l-8.9,8.9l-23.2-23.2L175.7,5.3z"/>
<path class="st0" d="M166.8,28v0.6c0,1.2-1,2.2-2.2,2.2h-19.5c-1.2,0-2.2-1-2.2-2.2V28c0-1.2,1-2.2,2.2-2.2h19.5
	C165.9,25.8,166.8,26.8,166.8,28z"/>
<path class="st0" d="M253.8,5.3L277,28.5l-23.2,23.2l-8.9-8.9l5.2-5.2l2,2c1,1,2.5,1,3.5,0l9.3-9.3c1-1,1-2.5,0-3.5l-9.3-9.3
	c-1-1-2.5-1-3.5,0l-9.3,9.3c-1,1-1,2.5,0,3.5l2.2,2.2l-5.2,5.2l-9.1-9.1l9.1-9.1l5.2-5.2L253.8,5.3z"/>
<path class="st0" d="M235.9,5.3l8.9,8.9l-5.2,5.2l-2-2c-1-1-2.5-1-3.5,0l-9.3,9.3c-1,1-1,2.5,0,3.5l9.3,9.3c1,1,2.5,1,3.5,0l2-2
	l5.2-5.2l2.2-2.2c1-1,1-2.5,0-3.5l-2.2-2.2l5.2-5.2l9.1,9.1l-9.1,9.1l-5.2,5.2l-8.9,8.9l-23.2-23.2L235.9,5.3z"/>
<path class="st0" d="M227.1,28v0.6c0,1.2-1,2.2-2.2,2.2h-19.5c-1.2,0-2.2-1-2.2-2.2V28c0-1.2,1-2.2,2.2-2.2h19.5
	C226.1,25.8,227.1,26.8,227.1,28z"/>
<path class="st0" d="M314,5.3l23.2,23.2L314,51.7l-8.9-8.9l5.2-5.2l2,2c1,1,2.5,1,3.5,0l9.3-9.3c1-1,1-2.5,0-3.5l-9.3-9.3
	c-1-1-2.5-1-3.5,0l-9.3,9.3c-1,1-1,2.5,0,3.5l2.2,2.2l-5.2,5.2l-9.1-9.1l9.1-9.1l5.2-5.2L314,5.3z"/>
<path class="st0" d="M296.2,5.3l8.9,8.9l-5.2,5.2l-2-2c-1-1-2.5-1-3.5,0l-9.3,9.3c-1,1-1,2.5,0,3.5l9.3,9.3c1,1,2.5,1,3.5,0l2-2
	l5.2-5.2l2.2-2.2c1-1,1-2.5,0-3.5l-2.2-2.2l5.2-5.2l9.1,9.1l-9.1,9.1l-5.2,5.2l-8.9,8.9L273,28.5L296.2,5.3z"/>
<path class="st0" d="M287.4,28v0.6c0,1.2-1,2.2-2.2,2.2h-19.5c-1.2,0-2.2-1-2.2-2.2V28c0-1.2,1-2.2,2.2-2.2h19.5
	C286.4,25.8,287.4,26.8,287.4,28z"/>
<path class="st0" d="M73,318.4l23.2,23.2L73,364.8l-8.9-8.9l5.2-5.2l2,2c1,1,2.5,1,3.5,0l9.3-9.3c1-1,1-2.5,0-3.5l-9.3-9.3
	c-1-1-2.5-1-3.5,0l-9.3,9.3c-1,1-1,2.5,0,3.5l2.2,2.2l-5.2,5.2l-9.1-9.1l9.1-9.1l5.2-5.2L73,318.4z"/>
<path class="st0" d="M55.2,318.4l8.9,8.9l-5.2,5.2l-2-2c-1-1-2.5-1-3.5,0l-9.3,9.3c-1,1-1,2.5,0,3.5l9.3,9.3c1,1,2.5,1,3.5,0l2-2
	l5.2-5.2l2.2-2.2c1-1,1-2.5,0-3.5l-2.2-2.2l5.2-5.2l9.1,9.1l-9.1,9.1l-5.2,5.2l-8.9,8.9l-23.2-23.2L55.2,318.4z"/>
<path class="st0" d="M133.3,318.4l23.2,23.2l-23.2,23.2l-8.9-8.9l5.2-5.2l2,2c1,1,2.5,1,3.5,0l9.3-9.3c1-1,1-2.5,0-3.5l-9.3-9.3
	c-1-1-2.5-1-3.5,0l-9.3,9.3c-1,1-1,2.5,0,3.5l2.2,2.2l-5.2,5.2l-9.1-9.1l9.1-9.1l5.2-5.2L133.3,318.4z"/>
<path class="st0" d="M115.4,318.4l8.9,8.9l-5.2,5.2l-2-2c-1-1-2.5-1-3.5,0l-9.3,9.3c-1,1-1,2.5,0,3.5l9.3,9.3c1,1,2.5,1,3.5,0l2-2
	l5.2-5.2l2.2-2.2c1-1,1-2.5,0-3.5l-2.2-2.2l5.2-5.2l9.1,9.1l-9.1,9.1l-5.2,5.2l-8.9,8.9l-23.2-23.2L115.4,318.4z"/>
<path class="st0" d="M106.6,341.1v0.6c0,1.2-1,2.2-2.2,2.2H84.9c-1.2,0-2.2-1-2.2-2.2v-0.6c0-1.2,1-2.2,2.2-2.2h19.5
	C105.6,338.9,106.6,339.9,106.6,341.1z"/>
<path class="st0" d="M193.5,318.4l23.2,23.2l-23.2,23.2l-8.9-8.9l5.2-5.2l2,2c1,1,2.5,1,3.5,0l9.3-9.3c1-1,1-2.5,0-3.5l-9.3-9.3
	c-1-1-2.5-1-3.5,0l-9.3,9.3c-1,1-1,2.5,0,3.5l2.2,2.2l-5.2,5.2l-9.1-9.1l9.1-9.1l5.2-5.2L193.5,318.4z"/>
<path class="st0" d="M175.7,318.4l8.9,8.9l-5.2,5.2l-2-2c-1-1-2.5-1-3.5,0l-9.3,9.3c-1,1-1,2.5,0,3.5l9.3,9.3c1,1,2.5,1,3.5,0l2-2
	l5.2-5.2l2.2-2.2c1-1,1-2.5,0-3.5l-2.2-2.2l5.2-5.2l9.1,9.1l-9.1,9.1l-5.2,5.2l-8.9,8.9l-23.2-23.2L175.7,318.4z"/>
<path class="st0" d="M166.8,341.1v0.6c0,1.2-1,2.2-2.2,2.2h-19.5c-1.2,0-2.2-1-2.2-2.2v-0.6c0-1.2,1-2.2,2.2-2.2h19.5
	C165.9,338.9,166.8,339.9,166.8,341.1z"/>
<path class="st0" d="M253.8,318.4l23.2,23.2l-23.2,23.2l-8.9-8.9l5.2-5.2l2,2c1,1,2.5,1,3.5,0l9.3-9.3c1-1,1-2.5,0-3.5l-9.3-9.3
	c-1-1-2.5-1-3.5,0l-9.3,9.3c-1,1-1,2.5,0,3.5l2.2,2.2l-5.2,5.2l-9.1-9.1l9.1-9.1l5.2-5.2L253.8,318.4z"/>
<path class="st0" d="M235.9,318.4l8.9,8.9l-5.2,5.2l-2-2c-1-1-2.5-1-3.5,0l-9.3,9.3c-1,1-1,2.5,0,3.5l9.3,9.3c1,1,2.5,1,3.5,0l2-2
	l5.2-5.2l2.2-2.2c1-1,1-2.5,0-3.5l-2.2-2.2l5.2-5.2l9.1,9.1l-9.1,9.1l-5.2,5.2l-8.9,8.9l-23.2-23.2L235.9,318.4z"/>
<path class="st0" d="M227.1,341.1v0.6c0,1.2-1,2.2-2.2,2.2h-19.5c-1.2,0-2.2-1-2.2-2.2v-0.6c0-1.2,1-2.2,2.2-2.2h19.5
	C226.1,338.9,227.1,339.9,227.1,341.1z"/>
<path class="st0" d="M314,318.4l23.2,23.2L314,364.8l-8.9-8.9l5.2-5.2l2,2c1,1,2.5,1,3.5,0l9.3-9.3c1-1,1-2.5,0-3.5l-9.3-9.3
	c-1-1-2.5-1-3.5,0l-9.3,9.3c-1,1-1,2.5,0,3.5l2.2,2.2l-5.2,5.2l-9.1-9.1l9.1-9.1l5.2-5.2L314,318.4z"/>
<path class="st0" d="M296.2,318.4l8.9,8.9l-5.2,5.2l-2-2c-1-1-2.5-1-3.5,0l-9.3,9.3c-1,1-1,2.5,0,3.5l9.3,9.3c1,1,2.5,1,3.5,0l2-2
	l5.2-5.2l2.2-2.2c1-1,1-2.5,0-3.5l-2.2-2.2l5.2-5.2l9.1,9.1l-9.1,9.1l-5.2,5.2l-8.9,8.9L273,341.6L296.2,318.4z"/>
<path class="st0" d="M287.4,341.1v0.6c0,1.2-1,2.2-2.2,2.2h-19.5c-1.2,0-2.2-1-2.2-2.2v-0.6c0-1.2,1-2.2,2.2-2.2h19.5
	C286.4,338.9,287.4,339.9,287.4,341.1z"/>
<path class="st0" d="M364.6,72.8l-23.2,23.2l-23.2-23.2l8.9-8.9l5.2,5.2l-2,2c-1,1-1,2.5,0,3.5l9.3,9.3c1,1,2.5,1,3.5,0l9.3-9.3
	c1-1,1-2.5,0-3.5l-9.3-9.3c-1-1-2.5-1-3.5,0l-2.2,2.2l-5.2-5.2l9.1-9.1l9.1,9.1l5.2,5.2L364.6,72.8z"/>
<path class="st0" d="M364.6,55l-8.9,8.9l-5.2-5.2l2-2c1-1,1-2.5,0-3.5l-9.3-9.3c-1-1-2.5-1-3.5,0l-9.3,9.3c-1,1-1,2.5,0,3.5l2,2
	l5.2,5.2l2.2,2.2c1,1,2.5,1,3.5,0l2.2-2.2l5.2,5.2l-9.1,9.1l-9.1-9.1l-5.2-5.2l-8.9-8.9l23.2-23.2L364.6,55z"/>
<path class="st0" d="M364.6,133.1l-23.2,23.2l-23.2-23.2l8.9-8.9l5.2,5.2l-2,2c-1,1-1,2.5,0,3.5l9.3,9.3c1,1,2.5,1,3.5,0l9.3-9.3
	c1-1,1-2.5,0-3.5l-9.3-9.3c-1-1-2.5-1-3.5,0l-2.2,2.2l-5.2-5.2l9.1-9.1l9.1,9.1l5.2,5.2L364.6,133.1z"/>
<path class="st0" d="M364.6,115.2l-8.9,8.9l-5.2-5.2l2-2c1-1,1-2.5,0-3.5l-9.3-9.3c-1-1-2.5-1-3.5,0l-9.3,9.3c-1,1-1,2.5,0,3.5l2,2
	l5.2,5.2l2.2,2.2c1,1,2.5,1,3.5,0l2.2-2.2l5.2,5.2l-9.1,9.1l-9.1-9.1l-5.2-5.2l-8.9-8.9L341.4,92L364.6,115.2z"/>
<path class="st0" d="M341.8,106.4h-0.6c-1.2,0-2.2-1-2.2-2.2V84.7c0-1.2,1-2.2,2.2-2.2h0.6c1.2,0,2.2,1,2.2,2.2v19.5
	C344,105.4,343,106.4,341.8,106.4z"/>
<path class="st0" d="M364.6,193.3l-23.2,23.2l-23.2-23.2l8.9-8.9l5.2,5.2l-2,2c-1,1-1,2.5,0,3.5l9.3,9.3c1,1,2.5,1,3.5,0l9.3-9.3
	c1-1,1-2.5,0-3.5l-9.3-9.3c-1-1-2.5-1-3.5,0l-2.2,2.2l-5.2-5.2l9.1-9.1l9.1,9.1l5.2,5.2L364.6,193.3z"/>
<path class="st0" d="M364.6,175.5l-8.9,8.9l-5.2-5.2l2-2c1-1,1-2.5,0-3.5l-9.3-9.3c-1-1-2.5-1-3.5,0l-9.3,9.3c-1,1-1,2.5,0,3.5l2,2
	l5.2,5.2l2.2,2.2c1,1,2.5,1,3.5,0l2.2-2.2l5.2,5.2l-9.1,9.1l-9.1-9.1l-5.2-5.2l-8.9-8.9l23.2-23.2L364.6,175.5z"/>
<path class="st0" d="M341.8,166.7h-0.6c-1.2,0-2.2-1-2.2-2.2V145c0-1.2,1-2.2,2.2-2.2h0.6c1.2,0,2.2,1,2.2,2.2v19.5
	C344,165.7,343,166.7,341.8,166.7z"/>
<path class="st0" d="M364.6,253.6l-23.2,23.2l-23.2-23.2l8.9-8.9l5.2,5.2l-2,2c-1,1-1,2.5,0,3.5l9.3,9.3c1,1,2.5,1,3.5,0l9.3-9.3
	c1-1,1-2.5,0-3.5l-9.3-9.3c-1-1-2.5-1-3.5,0l-2.2,2.2l-5.2-5.2l9.1-9.1l9.1,9.1l5.2,5.2L364.6,253.6z"/>
<path class="st0" d="M364.6,235.8l-8.9,8.9l-5.2-5.2l2-2c1-1,1-2.5,0-3.5l-9.3-9.3c-1-1-2.5-1-3.5,0l-9.3,9.3c-1,1-1,2.5,0,3.5l2,2
	l5.2,5.2l2.2,2.2c1,1,2.5,1,3.5,0l2.2-2.2l5.2,5.2l-9.1,9.1l-9.1-9.1l-5.2-5.2l-8.9-8.9l23.2-23.2L364.6,235.8z"/>
<path class="st0" d="M341.8,226.9h-0.6c-1.2,0-2.2-1-2.2-2.2v-19.5c0-1.2,1-2.2,2.2-2.2h0.6c1.2,0,2.2,1,2.2,2.2v19.5
	C344,225.9,343,226.9,341.8,226.9z"/>
<path class="st0" d="M364.6,313.8l-23.2,23.2l-23.2-23.2l8.9-8.9l5.2,5.2l-2,2c-1,1-1,2.5,0,3.5l9.3,9.3c1,1,2.5,1,3.5,0l9.3-9.3
	c1-1,1-2.5,0-3.5l-9.3-9.3c-1-1-2.5-1-3.5,0l-2.2,2.2l-5.2-5.2l9.1-9.1l9.1,9.1l5.2,5.2L364.6,313.8z"/>
<path class="st0" d="M364.6,296l-8.9,8.9l-5.2-5.2l2-2c1-1,1-2.5,0-3.5l-9.3-9.3c-1-1-2.5-1-3.5,0l-9.3,9.3c-1,1-1,2.5,0,3.5l2,2
	l5.2,5.2l2.2,2.2c1,1,2.5,1,3.5,0l2.2-2.2l5.2,5.2l-9.1,9.1l-9.1-9.1l-5.2-5.2l-8.9-8.9l23.2-23.2L364.6,296z"/>
<path class="st0" d="M341.8,287.2h-0.6c-1.2,0-2.2-1-2.2-2.2v-19.5c0-1.2,1-2.2,2.2-2.2h0.6c1.2,0,2.2,1,2.2,2.2V285
	C344,286.2,343,287.2,341.8,287.2z"/>
<ellipse class="st6" cx="184.7" cy="270.6" rx="101.9" ry="53.1"/>
<path class="st6" d="M159.4,84.2c8,20.5-6.5,45.3-32.3,55.3c-25.8,10-53.2,1.5-61.2-19.1s12.9-78.6,38.8-88.6
	C129.3,39.8,151.4,63.6,159.4,84.2z"/>
<path class="st0" d="M143.4,84.5c5,12.8-1.4,27.2-14.2,32.2c-12.8,5-27.2-1.4-32.2-14.2c-5-12.8,3.3-47.1,16.1-52.1
	C126.1,56.4,138.4,71.7,143.4,84.5z"/>
<path class="st6" d="M210,84.2c-8,20.5,6.5,45.3,32.3,55.3c25.8,10,53.2,1.5,61.2-19.1c8-20.5-12.9-78.6-38.8-88.6
	C240.1,39.8,218,63.6,210,84.2z"/>
<path class="st0" d="M226,84.5c-5,12.8,1.4,27.2,14.2,32.2c12.8,5,27.2-1.4,32.2-14.2c5-12.8-3.3-47.1-16.1-52.1
	C243.3,56.4,231,71.7,226,84.5z"/>
<path class="st0" d="M231.1,266.4c0.2-1.8,0.3-3.7,0.3-5.5c0-28.6-20.9-51.8-46.7-51.8S138,232.2,138,260.8c0,1.9,0.1,3.8,0.3,5.6
	l-0.3-0.1c0,0-1.6,14.4,3.5,28.3c0,0,0.7-5,2.5-8.5c0,0,3.8,14.1,15.3,22.9c0,0-0.2-1.5,0.9-4.1c0,0,8.9,9.2,24.2,11.9l0,0.1
	c0,0,0.1,0,0.1,0c0,0,0.1,0,0.1,0l0-0.1c13.3-2.3,21.6-9.4,23.7-11.4c0.2-0.1,0.4-0.2,0.6-0.4c1.1,2.6,0.8,4,0.8,4
	c9.6-7.3,13.8-18.3,15-21.8c0.2-0.3,0.3-0.6,0.5-0.9c1.7,3.5,2.4,8.3,2.4,8.3C232.8,280.8,231.2,266.4,231.1,266.4L231.1,266.4z"/>
<path class="st6" d="M328.1,207.8c-2.2,9.3-8,18.5-17.2,26.6c-10.9,9.5-26.6,17.4-47.1,22.2c-6,1.4-12.4,2.5-19.2,3.3
	c-3.5,0.4-7.1,0.8-10.8,1h-98.3c-3.7-0.2-7.3-0.6-10.8-1c-6.8-0.8-13.2-1.9-19.2-3.3c-20.4-4.7-36.2-12.7-47.1-22.2
	c-9.3-8-15.1-17.3-17.2-26.6c12.6-17.4,21-31.5,26.5-42.9c1.3-13.1,5.1-25.5,10.9-36.8c12.8-25,35.5-44.8,63.2-55
	c13.2-4.8,27.7-7.5,42.7-7.5s29.5,2.7,42.7,7.5c27.8,10.2,50.5,30,63.3,55c5.8,11.3,9.6,23.7,10.9,36.7
	C307.1,176.2,315.5,190.4,328.1,207.8z"/>
<path class="st0" d="M124.8,259.9c-6.8-0.8-13.2-1.9-19.2-3.3c-20.4-4.7-36.2-12.7-47.1-22.2c13.7-33.5,46.7-87.1,72.9-81.9
	C159.3,157.9,134.6,227.7,124.8,259.9z"/>
<path class="st0" d="M310.9,234.4c-10.9,9.5-26.6,17.4-47.1,22.2c-6,1.4-12.4,2.5-19.2,3.3c-9.9-32.2-34.5-101.9-6.7-107.4
	C264.2,147.2,297.2,200.9,310.9,234.4z"/>
<ellipse cx="126" cy="172.6" rx="12.4" ry="5.8"/>
<ellipse cx="242.9" cy="172.6" rx="12.4" ry="5.8"/>
<path class="st1" d="M328.1,207.8c-2.2,9.3-8,18.5-17.2,26.6c-10.9,9.5-26.6,17.4-47.1,22.2c-6,1.4-12.4,2.5-19.2,3.3
	c-3.5,0.4-7.1,0.8-10.8,1h-98.3c-3.7-0.2-7.3-0.6-10.8-1c-6.8-0.8-13.2-1.9-19.2-3.3c-20.4-4.7-36.2-12.7-47.1-22.2
	c-9.3-8-15.1-17.3-17.2-26.6c12.6-17.4,21-31.5,26.5-42.9c1.3-13.1,5.1-25.5,10.9-36.8c12.8-25,35.5-44.8,63.2-55
	c13.2-4.8,27.7-7.5,42.7-7.5s29.5,2.7,42.7,7.5c27.8,10.2,50.5,30,63.3,55c5.8,11.3,9.6,23.7,10.9,36.7
	C307.1,176.2,315.5,190.4,328.1,207.8z"/>
<path d="M203.5,187.3c0,6.3-8.4,18.2-18.8,18.2s-18.8-11.9-18.8-18.2s8.4-11.4,18.8-11.4S203.5,181,203.5,187.3z"/>
<line class="st6" x1="184.7" y1="214.8" x2="184.7" y2="194.4"/>
<path class="st7" d="M164,218.2c0,0,13.6,6.4,20.7-3.3"/>
<path d="M164.5,217.3c1.6,0.6,3.5,1,5.2,1.2c1.8,0.2,3.5,0.2,5.2,0c1.7-0.3,3.2-0.9,4.5-1.7c1.3-0.8,2.3-2.1,3.2-3.3l0.1-0.2
	c0.8-1.1,2.4-1.4,3.5-0.6c1.1,0.8,1.4,2.4,0.6,3.5c-0.1,0.1-0.1,0.2-0.2,0.2c-1.5,1.7-3.2,3.2-5.2,4.1c-2,0.9-4.2,1.4-6.3,1.5
	c-2.1,0-4.1-0.2-6.1-0.7c-1.9-0.5-3.8-1.2-5.6-2.1c-0.5-0.3-0.7-0.9-0.4-1.3C163.4,217.3,164,217.1,164.5,217.3L164.5,217.3z"/>
<path class="st7" d="M205.4,218.2c0,0-13.6,6.4-20.7-3.3"/>
<path d="M205.8,219.1c-1.8,0.9-3.6,1.6-5.6,2.1c-1.9,0.5-4,0.8-6.1,0.7c-2.1-0.1-4.2-0.5-6.3-1.5c-2.1-0.9-3.7-2.5-5.2-4.1
	c-0.9-1-0.8-2.6,0.2-3.5c1-0.9,2.6-0.8,3.5,0.2c0.1,0.1,0.1,0.1,0.2,0.2l0.1,0.2c0.9,1.3,1.9,2.5,3.2,3.3c1.3,0.8,2.9,1.4,4.5,1.7
	c1.7,0.3,3.5,0.3,5.2,0c1.8-0.2,3.6-0.6,5.2-1.2l0.1,0c0.5-0.2,1.1,0.1,1.3,0.6C206.4,218.3,206.2,218.8,205.8,219.1z"/>
<path class="st0" d="M170.1,140.6c-2.8,0-5.1-2.3-5.1-5.1v-10.7c0-2.8,2.3-5.1,5.1-5.1c2.8,0,5.1,2.3,5.1,5.1v10.7
	C175.3,138.3,173,140.6,170.1,140.6z"/>
<path class="st0" d="M162.4,105.6c-2.3,0-4.4-1.6-5-3.9L154,87.9c-0.7-2.8,1-5.5,3.8-6.2c2.8-0.7,5.5,1,6.2,3.8l3.3,13.7
	c0.7,2.8-1,5.5-3.8,6.2C163.2,105.5,162.8,105.6,162.4,105.6z"/>
<path class="st0" d="M199.3,140.6c-2.8,0-5.1-2.3-5.1-5.1v-10.7c0-2.8,2.3-5.1,5.1-5.1c2.8,0,5.1,2.3,5.1,5.1v10.7
	C204.4,138.3,202.1,140.6,199.3,140.6z"/>
<path class="st0" d="M207,105.6c-0.4,0-0.8,0-1.2-0.1c-2.8-0.7-4.5-3.5-3.8-6.2l3.3-13.7c0.7-2.8,3.5-4.5,6.2-3.8
	c2.8,0.7,4.5,3.5,3.8,6.2l-3.3,13.7C211.5,104,209.4,105.6,207,105.6z"/>
<path class="st0" d="M184.9,97.2c-2.8,0-5.1-2.2-5.1-5l-0.3-10.7c-0.1-2.8,2.2-5.2,5-5.3c2.9-0.1,5.2,2.2,5.3,5l0.3,10.7
	c0.1,2.8-2.2,5.2-5,5.3C185,97.2,184.9,97.2,184.9,97.2z"/>
<path class="st0" d="M184.7,123.7c-2.8,0-5.1-2.3-5.1-5.1v-8.3c0-2.8,2.3-5.1,5.1-5.1s5.1,2.3,5.1,5.1v8.3
	C189.9,121.4,187.5,123.7,184.7,123.7z"/>
<ellipse class="st0" cx="94.6" cy="196.5" rx="25.6" ry="12.5"/>
<ellipse class="st0" cx="274.8" cy="196.5" rx="25.6" ry="12.5"/>
<ellipse class="st6" cx="88.2" cy="299.8" rx="43.3" ry="27.1"/>
<path d="M69.9,304.8c-0.7,1.4-1.2,3.1-1.5,4.7c-0.3,1.6-0.5,3.2-0.5,4.9c0,1.6,0.2,3.2,0.6,4.7c0.4,1.5,1.1,3,1.9,4.3l0.1,0.1
	c0.4,0.7,0.1,1.6-0.6,2c-0.7,0.4-1.6,0.1-2-0.6c0,0,0,0,0-0.1c-0.8-1.7-1.6-3.4-1.9-5.2c-0.4-1.8-0.5-3.6-0.4-5.4
	c0.1-1.8,0.4-3.6,0.9-5.3c0.5-1.7,1.1-3.4,2-5c0.2-0.4,0.8-0.6,1.2-0.4C69.9,303.8,70.1,304.3,69.9,304.8L69.9,304.8z"/>
<path d="M104.6,303.9c0.9,1.8,1.5,3.6,1.9,5.4c0.4,1.9,0.6,3.8,0.5,5.7c-0.1,1.9-0.3,3.8-0.9,5.7c-0.2,0.9-0.6,1.8-0.9,2.7
	c-0.3,0.9-0.8,1.7-1.2,2.6c-0.3,0.8-1.2,1.1-2,0.7c-0.8-0.3-1.1-1.2-0.7-2c0,0,0,0,0-0.1l0.1-0.2c0.4-0.8,0.8-1.5,1.2-2.3
	c0.3-0.8,0.7-1.6,1-2.4c0.6-1.6,0.9-3.3,1.1-5c0.2-1.7,0.1-3.5-0.1-5.2c-0.2-1.7-0.7-3.5-1.4-4.9l0-0.1c-0.2-0.5,0-1,0.5-1.2
	C103.8,303.3,104.3,303.5,104.6,303.9z"/>
<path class="st5" d="M167.5,153.2c0,0,0.5,1.2,1.1,3"/>
<path class="st5" d="M169.6,158.9c0.5,1.5,1.1,3.3,1.6,5.1"/>
<path class="st5" d="M172,167.3c0.4,1.6,0.6,3.2,0.8,4.7"/>
<path class="st5" d="M201.9,153.2c0,0-0.7,1.7-1.6,4.3"/>
<path class="st5" d="M198.5,163.1c-0.6,2-1.1,4.2-1.5,6.3"/>
<path class="st5" d="M69.1,172c0,0-5.7,12.5-9.5,16.9"/>
<line class="st5" x1="71.7" y1="175.9" x2="65.7" y2="186.9"/>
<path class="st5" d="M296.8,169.4c0,0,8.9,18.5,16.6,27.1"/>
<path class="st5" d="M293.2,174.4c0,0,4,8.1,7.2,12.5"/>
<line class="st5" x1="135.3" y1="243.6" x2="131.4" y2="255.4"/>
<line class="st5" x1="139.5" y1="248.6" x2="137.8" y2="255.4"/>
<path class="st5" d="M231.4,236.8c0,0,3.7,13.6,5.6,18.7"/>
<path class="st5" d="M226.2,244.9c0,0,0.9,5.9,2.4,11.6"/>
<path class="st5" d="M92.1,256.5c0,0-4.2,4.2-3.9,11.2"/>
<path class="st5" d="M277,256.5c0,0,2.9,4.8,4.3,13.2"/>
<path class="st0" d="M61.3,314.3c0,4.4,0,13.1,0,13.1s-7.5-3.7-7.5-13c0-4.4,2.6-8,4.4-8C60,306.4,61.3,310,61.3,314.3z"/>
<path class="st0" d="M115,314.3c0,4.4,0,13.1,0,13.1s7.5-3.7,7.5-13c0-4.4-2.6-8-4.4-8S115,310,115,314.3z"/>
<path class="st0" d="M92.1,313.4c0,6.3-4.7,17.2-4.7,17.2s-4.7-10.9-4.7-17.2c0-2.6,2.1-4.7,4.7-4.7S92.1,310.8,92.1,313.4z"/>
<ellipse class="st6" cx="281.2" cy="299.8" rx="43.3" ry="27.1"/>
<path d="M301.1,304c0.9,1.6,1.5,3.3,2,5c0.5,1.7,0.8,3.5,0.9,5.3c0.1,1.8,0,3.6-0.4,5.4c-0.3,1.8-1.1,3.5-1.9,5.2
	c-0.4,0.7-1.3,1-2,0.7c-0.7-0.4-1-1.3-0.7-2c0,0,0,0,0-0.1l0.1-0.1c0.8-1.4,1.5-2.8,1.9-4.3c0.4-1.5,0.7-3.1,0.6-4.7
	c0-1.6-0.2-3.3-0.5-4.9c-0.3-1.6-0.9-3.2-1.5-4.7l0-0.1c-0.2-0.5,0-1,0.4-1.2C300.4,303.4,300.9,303.5,301.1,304z"/>
<path d="M266.4,304.8c-0.7,1.5-1.1,3.2-1.4,4.9c-0.2,1.7-0.3,3.5-0.1,5.2c0.2,1.7,0.5,3.4,1.1,5c0.2,0.8,0.6,1.6,1,2.4
	c0.4,0.8,0.8,1.5,1.2,2.3l0.1,0.2c0.4,0.7,0.1,1.6-0.6,2c-0.7,0.4-1.6,0.1-2-0.6c0,0,0,0,0-0.1c-0.4-0.9-0.9-1.7-1.2-2.6
	c-0.3-0.9-0.7-1.8-0.9-2.7c-0.6-1.8-0.8-3.8-0.9-5.7c-0.1-1.9,0.1-3.8,0.5-5.7c0.4-1.9,0.9-3.7,1.9-5.4c0.2-0.4,0.8-0.6,1.2-0.4
	C266.5,303.8,266.6,304.3,266.4,304.8L266.4,304.8z"/>
<path class="st0" d="M308.1,314.3c0,4.4,0,13.1,0,13.1s7.5-3.7,7.5-13c0-4.4-2.6-8-4.4-8C309.4,306.4,308.1,310,308.1,314.3z"/>
<path class="st0" d="M254.4,314.3c0,4.4,0,13.1,0,13.1s-7.5-3.7-7.5-13c0-4.4,2.6-8,4.4-8S254.4,310,254.4,314.3z"/>
<path class="st0" d="M277.3,313.4c0,6.3,4.7,17.2,4.7,17.2s4.7-10.9,4.7-17.2c0-2.6-2.1-4.7-4.7-4.7
	C279.4,308.7,277.3,310.8,277.3,313.4z"/>
<path class="st0" d="M77.4,220.2c0,0-5.2,8.1-10.8,20.3"/>
<path class="st0" d="M85.8,230.4c0,0-5.3,9.8-8.4,16.3"/>
<path class="st0" d="M110.1,229.3c0,0-5.9,15.6-9,26.2"/>
<path class="st0" d="M292,220.2c0,0,5.2,8.1,10.8,20.3"/>
<path class="st0" d="M283.6,230.4c0,0,5.3,9.8,8.4,16.3"/>
<path class="st0" d="M259.3,229.3c0,0,5.9,15.6,9,26.2"/>
<path class="st0" d="M65.7,280c0,0-13.5,7.1-15.2,14.9"/>
<path class="st0" d="M120.2,288.8c0,0,10.3,4.9,5,17.6"/>
<path class="st0" d="M245.9,290.6c0,0-7.3,7.5-1.3,16.9"/>
<path class="st0" d="M305.1,281.2c0,0,20.5,8.9,14.2,25.2"/>
<path class="st5" d="M101.4,106.4c0,0-24,24.4-26.7,53.7"/>
<path class="st5" d="M115.4,150.1c0,0,22.6-11.1,29.6,8.8"/>
<path class="st5" d="M252.4,150.3c0,0-18.7-10.3-27.3,6"/>
<path class="st5" d="M255.3,96.1c0,0,32.5,22.3,39.4,62.8"/>
<path class="st5" d="M299.6,100.8c0,0,3,16.7-5.7,26.5"/>
<path class="st5" d="M293.2,108.3c0,0,0.4,8.4-2.4,13"/>
<path class="st5" d="M69.8,100.8c0,0-3,16.7,5.7,26.5"/>
<path class="st5" d="M76.2,108.3c0,0-0.4,8.4,2.4,13"/>
<path class="st5" d="M150.6,299.8c0,0-2.9-13.8-0.8-23.9"/>
<path class="st5" d="M203.2,293.7c0,0.7,0.7,9.8-2.5,17.3"/>
<path class="st5" d="M217.8,274.2c0,0,4,12.7,0.4,26.2"/>
<path class="st5" d="M227.1,267.6c0,0,3.6,7.5,2.3,21.3"/>
<path class="st5" d="M167.4,290.6c0,0-1.4,9.7,1,20.4"/>
<path class="st5" d="M175.2,304.4c0,0-0.4,4.6,0.5,10.1"/>
<line class="st5" x1="146" y1="68.5" x2="140.7" y2="61.8"/>
<line class="st5" x1="140.7" y1="70" x2="138.7" y2="67.5"/>
<line class="st5" x1="224.3" y1="68.7" x2="228.5" y2="61.8"/>
<line class="st5" x1="228.5" y1="70.4" x2="230.5" y2="66.9"/>
</svg>
