<?xml version="1.0" encoding="utf-8"?>
<!-- Generator: Adobe Illustrator 22.1.0, SVG Export Plug-In . SVG Version: 6.00 Build 0)  -->
<svg version="1.1" id="Layer_2" xmlns="http://www.w3.org/2000/svg" xmlns:xlink="http://www.w3.org/1999/xlink" x="0px" y="0px"
	 width="369.4px" height="370.1px" viewBox="0 0 369.4 370.1" style="enable-background:new 0 0 369.4 370.1;" xml:space="preserve"
	>
<style type="text/css">
	.st0{fill:#FFFFFF;stroke:#000000;stroke-width:2;stroke-linecap:round;stroke-linejoin:round;}
	.st1{fill:none;stroke:#000000;stroke-width:3;stroke-linecap:round;stroke-linejoin:round;}
	.st2{fill:#FFFFFF;stroke:#000000;stroke-width:2;stroke-linecap:round;stroke-linejoin:round;stroke-miterlimit:10;}
	.st3{fill:none;stroke:#000000;stroke-width:3;stroke-linecap:round;stroke-linejoin:round;stroke-miterlimit:10;}
	.st4{fill:#FFFFFF;stroke:#000000;stroke-width:3;stroke-linecap:round;stroke-linejoin:round;stroke-miterlimit:10;}
	.st5{fill:none;stroke:#000000;stroke-width:2;stroke-linecap:round;stroke-linejoin:round;}
	.st6{fill:#FFFFFF;stroke:#000000;stroke-width:3;stroke-linecap:round;stroke-linejoin:round;}
	.st7{fill:#FFFFFF;}
	.st8{fill:none;stroke:#000000;stroke-width:2;stroke-linecap:round;stroke-linejoin:round;stroke-miterlimit:10;}
	.st9{fill:#FFFFFF;stroke:#000000;stroke-linecap:round;stroke-linejoin:round;}
	.st10{fill:none;stroke:#000000;stroke-linecap:round;stroke-linejoin:round;}
	.st11{fill:#FFFFFF;stroke:#000000;stroke-width:2;stroke-miterlimit:10;}
	.st12{fill:#FFFFFF;stroke:#000000;stroke-width:2;stroke-linecap:round;stroke-miterlimit:10;}
	.st13{fill:none;stroke:#000000;stroke-width:2;stroke-linecap:round;stroke-miterlimit:10;}
	.st14{fill:none;stroke:#000000;stroke-width:3;stroke-linecap:round;stroke-miterlimit:10;}
	.st15{fill:none;stroke:#000000;stroke-width:4;stroke-linecap:round;stroke-linejoin:round;}
	.st16{fill:#FFFFFF;stroke:#000000;stroke-width:3;stroke-linejoin:round;stroke-miterlimit:10;}
	.st17{fill:#FFFFFF;stroke:#000000;stroke-width:0.7;stroke-linecap:round;stroke-linejoin:round;}
	.st18{fill:#FFFFFF;stroke:#000000;stroke-linecap:round;stroke-linejoin:round;stroke-miterlimit:10;}
	.st19{fill:none;stroke:#000000;stroke-linecap:round;stroke-linejoin:round;stroke-miterlimit:10;}
	.st20{fill:#FFFFFF;stroke:#000000;stroke-width:1.6;stroke-linecap:round;stroke-linejoin:round;}
	.st21{fill:none;stroke:#000000;stroke-width:2.4;stroke-linecap:round;stroke-linejoin:round;}
</style>
<path class="st2" d="M24.6,243.8c2.6,6.9-3.5,12.5-3.5,12.5s-8.2-0.2-10.8-7.2s-1.4-25.8-1.4-25.8S22,236.8,24.6,243.8z"/>
<path class="st2" d="M323.9,200.2c1.7,7.2-5.1,11.9-5.1,11.9s-8.1-1.3-9.8-8.5c-1.7-7.2,1.9-25.8,1.9-25.8S322.2,193,323.9,200.2z"
	/>
<path class="st2" d="M357.9,222.4c0,7.4-7.6,10.5-7.6,10.5s-7.7-3.1-7.7-10.4c0-7.4,7.6-24.7,7.6-24.7S357.9,215,357.9,222.4z"/>
<path class="st2" d="M164.3,341.5c6.9-2.7,12.6,3.2,12.6,3.2s0,8.2-6.9,11s-25.8,2-25.8,2S157.4,344.2,164.3,341.5z"/>
<path class="st2" d="M176.5,346.2c5.2-4.1,12.1,0.2,12.1,0.2s2.6,7.7-2.6,11.8c-5.2,4.1-22,7.7-22,7.7S171.3,350.3,176.5,346.2z"/>
<path class="st2" d="M104.1,352.8c0.4-4.1,6.3-5.3,6.3-5.3s5.5,2.3,5.1,6.4c-0.4,4.1-7.1,13.3-7.1,13.3S103.7,356.9,104.1,352.8z"/>
<path class="st2" d="M32.8,344c7.4-2,12.6,5,12.6,5s-0.9,8.7-8.3,10.8c-7.4,2-26.9-1.2-26.9-1.2S25.4,346,32.8,344z"/>
<path class="st2" d="M357.2,258.9c-3.9,2.4-8.5-1.4-8.5-1.4s-1.4-5.9,2.4-8.3s16-3.2,16-3.2S361,256.5,357.2,258.9z"/>
<path class="st2" d="M19.4,266.4c5.3-2.2,9.8,2.4,9.8,2.4s0,6.4-5.3,8.6c-5.3,2.2-20.1,1.8-20.1,1.8S14.1,268.5,19.4,266.4z"/>
<path class="st8" d="M230.2,334.9c0,0-42.1,4.1-67.1,14.6"/>
<path class="st8" d="M204,338.6c0,0-24.5,12.1-28.2,17.7"/>
<path class="st8" d="M135.1,330c0,0-41.1,15.5-44.1,24c0,0-32.8-10.5-63.2-2"/>
<path class="st8" d="M111.7,340c0,0-2.5,13.2-2,16.2"/>
<path class="st8" d="M364,333.8c0,0-27.1-27.2-34.5-51.7c0,0,22.5-31.2,21.5-61.4"/>
<line class="st8" x1="340.8" y1="262.3" x2="357.1" y2="252"/>
<path class="st2" d="M327.9,259.5c2.9,3.5-0.3,8.6-0.3,8.6s-5.7,2.2-8.6-1.3c-2.9-3.5-5.2-15.4-5.2-15.4S325,256,327.9,259.5z"/>
<line class="st8" x1="333.4" y1="275.3" x2="321.1" y2="260.4"/>
<path class="st8" d="M346.7,245.5c0,0-28.9-20.5-31.1-47.8"/>
<path class="st8" d="M102.9,306.5c0,0-72.4-23.5-86.4-61.5"/>
<line class="st8" x1="32.7" y1="267.8" x2="13.8" y2="275"/>
<path class="st7" d="M368.6,358.7c-18.9-1.6-36.5-5.4-58.6-10.3l-0.2,0c-23.2-5-52-11.3-92.5-16.9c-17-2.3-35.9-3.5-56.3-3.5
	c-57.7,0-118.2,9.4-159.4,17.5V322c40.5-7.8,100.5-17,158.8-17c21.7,0,41.9,1.3,60.1,3.8c41.5,5.7,70.8,12.1,94.4,17.3l0.3,0.1
	c20.5,4.5,36.7,8,53.6,9.6V358.7z"/>
<path d="M160.3,306.6c21.6,0,41.8,1.3,59.9,3.8c41.4,5.7,70.7,12.1,94.3,17.3l0.2,0c20,4.4,35.9,7.8,52.4,9.5v19.9
	c-18.2-1.6-35.4-5.4-56.8-10.1l-0.2,0c-23.2-5.1-52.1-11.3-92.6-17c-17-2.4-36-3.5-56.6-3.5c-57,0-116.7,9.2-157.9,17.1v-20.3
	C43.4,315.6,102.7,306.6,160.3,306.6L160.3,306.6 M160.3,303.6c-57.7,0-117.1,8.8-160.3,17.2v26.4c42.7-8.4,103.2-17.8,160.9-17.8
	c19.3,0,38.3,1,56.1,3.5c40.5,5.6,69.4,11.9,92.6,16.9c22.7,5,40.9,8.9,60.5,10.4v-25.9c-17.3-1.5-33.9-5.1-55-9.7
	c-23.6-5.1-53-11.6-94.5-17.3C201.3,304.7,180.9,303.6,160.3,303.6L160.3,303.6z"/>
<path class="st4" d="M266.3,201.5c0,9.6-1.1,19-3.1,27.8c-6.8-1.3-12.4-5.7-15.5-11.7c-0.4-0.9-1.3-1.4-2.3-1.4s-1.9,0.5-2.3,1.4
	c-3.7,7.2-11.2,12.1-19.9,12.1c-8.6,0-16.2-4.9-19.9-12.1c-0.4-0.9-1.3-1.4-2.3-1.4c-1,0-1.9,0.5-2.3,1.4
	c-3.7,7.2-11.2,12.1-19.9,12.1c-8.6,0-16.2-4.9-19.9-12.1c-0.4-0.9-1.3-1.4-2.3-1.4c-1,0-1.9,0.5-2.3,1.4
	c-3.7,7.2-11.2,12.1-19.9,12.1c-8.6,0-16.2-4.9-19.9-12.1c-0.4-0.9-1.3-1.4-2.3-1.4c-1,0-1.9,0.5-2.3,1.4
	c-3.1,5.9-8.8,10.3-15.5,11.7c-2.1-8.9-3.1-18.2-3.1-27.8c0-1,0-2,0-3c1.3-56.4,40-101.6,87.6-101.6c47.6,0,86.2,45.2,87.6,101.6
	C266.3,199.4,266.3,200.5,266.3,201.5z"/>
<path class="st4" d="M263.1,229.3c-1.4,6-3.2,11.8-5.4,17.4c-2.8,6.9-6.1,13.3-10,19.3c0,0,0-0.1,0-0.1c-0.4-0.9-1.3-1.4-2.3-1.4
	s-1.9,0.5-2.3,1.4c-3.7,7.2-11.2,12.1-19.9,12.1c-8.6,0-16.2-4.9-19.9-12.1c-0.4-0.9-1.3-1.4-2.3-1.4c-1,0-1.9,0.5-2.3,1.4
	c-3.7,7.2-11.2,12.1-19.9,12.1c-8.6,0-16.2-4.9-19.9-12.1c-0.4-0.9-1.3-1.4-2.3-1.4c-1,0-1.9,0.5-2.3,1.4
	c-3.7,7.2-11.2,12.1-19.9,12.1c-8.6,0-16.2-4.9-19.9-12.1c-0.4-0.9-1.3-1.4-2.3-1.4c-1,0-1.9,0.5-2.3,1.4c0,0,0,0.1,0,0.1
	c-3.9-5.9-7.3-12.4-10-19.3c-2.2-5.5-4.1-11.3-5.4-17.4c6.8-1.3,12.4-5.7,15.5-11.7c0.4-0.9,1.3-1.4,2.3-1.4c1,0,1.9,0.5,2.3,1.4
	c3.7,7.2,11.2,12.1,19.9,12.1c8.6,0,16.2-4.9,19.9-12.1c0.4-0.9,1.3-1.4,2.3-1.4c1,0,1.9,0.5,2.3,1.4c3.7,7.2,11.2,12.1,19.9,12.1
	c8.6,0,16.2-4.9,19.9-12.1c0.4-0.9,1.3-1.4,2.3-1.4c1,0,1.9,0.5,2.3,1.4c3.7,7.2,11.2,12.1,19.9,12.1c8.6,0,16.2-4.9,19.9-12.1
	c0.4-0.9,1.3-1.4,2.3-1.4s1.9,0.5,2.3,1.4C250.7,223.6,256.4,228,263.1,229.3z"/>
<path class="st4" d="M247.6,265.9c-16,24.4-41,40.1-69,40.1s-53-15.7-69-40.1c0,0,0-0.1,0-0.1c0.4-0.9,1.3-1.4,2.3-1.4
	c1,0,1.9,0.5,2.3,1.4c3.7,7.2,11.2,12.1,19.9,12.1c8.6,0,16.2-4.9,19.9-12.1c0.4-0.9,1.3-1.4,2.3-1.4c1,0,1.9,0.5,2.3,1.4
	c3.7,7.2,11.2,12.1,19.9,12.1c8.6,0,16.2-4.9,19.9-12.1c0.4-0.9,1.3-1.4,2.3-1.4c1,0,1.9,0.5,2.3,1.4c3.7,7.2,11.2,12.1,19.9,12.1
	c8.6,0,16.2-4.9,19.9-12.1c0.4-0.9,1.3-1.4,2.3-1.4S247.2,265,247.6,265.9C247.6,265.9,247.6,265.9,247.6,265.9z"/>
<rect x="105.7" y="39" class="st4" width="145.9" height="126.7"/>
<path class="st4" d="M225.7,73.4c-20.5,0-35.5,6.6-47.1,20.5c-12.3-14.7-26.6-20.5-47.1-20.5c-29.3,0-53.1,23.8-53.1,53.1
	c0,29.3,23.8,53.1,53.1,53.1c20.5,0,38.2-11.6,47.1-28.5c8.9,17,26.6,28.5,47.1,28.5c29.3,0,53.1-23.8,53.1-53.1
	C278.8,97.1,255,73.4,225.7,73.4z"/>
<path class="st4" d="M81.4,172.3c-18.5,5.9-37.6-1.8-37.6-1.8s0,0,0.1-0.1c0,0,0.1-0.1,0.1-0.2c11.9-2.5,39.2-8.9,58.8-17.6
	C103.3,157.2,98.6,166.8,81.4,172.3z"/>
<path class="st4" d="M102.8,152.6c-19.5,8.7-46.9,15.1-58.8,17.6c1.5-2.2,12.2-17.5,29.3-23c18.5-5.9,28,0.5,29.3,4.5
	C102.7,152,102.8,152.3,102.8,152.6z"/>
<path class="st4" d="M102.9,142.4c-10.5-6.7-19.6-15.8-26.9-24.5c0,0,0,0,0,0c-0.4-5.8-1.4-13.8-2.3-20.7c2.9,1.4,5.9,3.1,8.8,5.1
	c1.3,6.1,2.4,12.3,2.4,16.6c0,0,3.2-4.1,6.5-9c0.8,0.9,1.6,1.8,2.4,2.7C105,126.4,105.2,137.3,102.9,142.4z"/>
<path class="st4" d="M102.9,142.4c-0.5,1.1-1.1,2-1.8,2.5c-3.6,2.9-16.4,3.2-30.1-13.6c-13.7-16.8-13.5-39.8-13.5-39.8
	c1.7,2.8,8,13.9,18,25.8l0.5,0.6c0,0,0,0,0,0C83.2,126.6,92.3,135.7,102.9,142.4z"/>
<path class="st3" d="M76,117.9C76,117.9,76,117.9,76,117.9c-0.2-0.2-0.4-0.4-0.5-0.6"/>
<path class="st4" d="M96.6,151.4c-21.4-13.1-56.3-23.3-64.3-24.6c0,0,21.8-7.2,42,0.7C93.4,135.1,97.7,146.6,96.6,151.4z"/>
<path class="st4" d="M96.6,151.4c0,0.3-0.1,0.5-0.2,0.7c-1.7,4.3-12.7,10.8-32.9,2.8c-4.1-1.6-7.8-3.7-11.1-6.1
	c6.4-4.5,11.9-9,12.2-9.2c-3.8,1.8-12.6,2.4-20.1,2.5c-7.9-7.7-12.1-15.4-12.1-15.4C40.3,128.1,75.2,138.3,96.6,151.4z"/>
<path class="st4" d="M76,117.9l-0.5-0.6c-9.9-11.9-16.3-23-18-25.8c0,0,7,1.4,15.6,5.5c0.2,0.1,0.3,0.2,0.5,0.3
	C74.6,104.1,75.6,112.1,76,117.9z"/>
<path class="st4" d="M275.9,172.3c18.5,5.9,37.6-1.8,37.6-1.8s0,0-0.1-0.1c0,0-0.1-0.1-0.1-0.2c-11.9-2.5-39.2-8.9-58.8-17.6
	C254,157.2,258.7,166.8,275.9,172.3z"/>
<path class="st4" d="M254.5,152.6c19.5,8.7,46.9,15.1,58.8,17.6c-1.5-2.2-12.2-17.5-29.3-23c-18.5-5.9-28,0.5-29.3,4.5
	C254.6,152,254.5,152.3,254.5,152.6z"/>
<path class="st4" d="M254.4,142.4c10.5-6.7,19.6-15.8,26.9-24.5c0,0,0,0,0,0c0.4-5.8,1.4-13.8,2.3-20.7c-2.9,1.4-5.9,3.1-8.8,5.1
	c-1.3,6.1-2.4,12.3-2.4,16.6c0,0-3.2-4.1-6.5-9c-0.8,0.9-1.6,1.8-2.4,2.7C252.3,126.4,252.1,137.3,254.4,142.4z"/>
<path class="st4" d="M254.4,142.4c0.5,1.1,1.1,2,1.8,2.5c3.6,2.9,16.4,3.2,30.1-13.6c13.7-16.8,13.5-39.8,13.5-39.8
	c-1.7,2.8-8,13.9-18,25.8l-0.5,0.6c0,0,0,0,0,0C274.1,126.6,265,135.7,254.4,142.4z"/>
<path class="st3" d="M281.3,117.9C281.3,117.9,281.3,117.9,281.3,117.9c0.2-0.2,0.4-0.4,0.5-0.6"/>
<path class="st4" d="M260.7,151.4c21.4-13.1,56.3-23.3,64.3-24.6c0,0-21.8-7.2-42,0.7C263.9,135.1,259.6,146.6,260.7,151.4z"/>
<path class="st4" d="M260.7,151.4c0,0.3,0.1,0.5,0.2,0.7c1.7,4.3,12.7,10.8,32.9,2.8c4.1-1.6,7.8-3.7,11.1-6.1
	c-6.4-4.5-11.9-9-12.2-9.2c3.8,1.8,12.6,2.4,20.1,2.5c7.9-7.7,12.1-15.4,12.1-15.4C317,128.1,282.1,138.3,260.7,151.4z"/>
<path class="st4" d="M281.3,117.9l0.5-0.6c9.9-11.9,16.3-23,18-25.8c0,0-7,1.4-15.6,5.5c-0.2,0.1-0.3,0.2-0.5,0.3
	C282.7,104.1,281.7,112.1,281.3,117.9z"/>
<path class="st4" d="M220.6,99.5c-18.2,0-34,10.3-41.9,25.4c-7.9-15.1-23.7-25.4-41.9-25.4c-26.1,0-47.3,21.2-47.3,47.3
	c0,26.1,21.2,47.3,47.3,47.3c18.2,0,34-10.3,41.9-25.4c7.9,15.1,23.7,25.4,41.9,25.4c26.1,0,47.3-21.2,47.3-47.3
	C267.8,120.6,246.7,99.5,220.6,99.5z"/>
<path class="st2" d="M176.2,110.4c-0.9,1.6-2.3,3.3-4.1,5c-1.4-1.6-2.9-3.1-4.6-4.5c1.7-1.9,3.5-3.4,5.1-4.3c1.8-1,3.3-1.2,4-0.4
	C177.4,107,177.2,108.6,176.2,110.4z"/>
<path class="st2" d="M169.3,103.6c-0.6,1.8-1.8,3.9-3.4,6c-1.7-1.3-3.4-2.5-5.2-3.6c1.4-2.3,3-4.3,4.5-5.5c1.6-1.3,3-1.8,3.9-1.1
	C169.9,100,170,101.6,169.3,103.6z"/>
<path class="st2" d="M161.3,98.1c-0.3,2-1.2,4.3-2.5,6.8c-1.8-1-3.7-1.8-5.7-2.6c1-2.7,2.3-5,3.6-6.6c1.3-1.6,2.7-2.3,3.6-1.8
	C161.3,94.4,161.7,96.1,161.3,98.1z"/>
<path class="st2" d="M152.6,94.3c0,2.1-0.4,4.7-1.3,7.5c-2-0.6-4-1.1-6-1.5c0.5-2.9,1.4-5.5,2.4-7.3c1-1.8,2.2-2.8,3.3-2.5
	C152,90.7,152.5,92.1,152.6,94.3z"/>
<path class="st2" d="M143.3,99.9c-2-0.3-4.1-0.4-6.1-0.4c0-3,0.4-5.8,1.1-7.7c0.7-2,1.7-3.2,2.8-3.1c1,0.1,1.9,1.4,2.3,3.5
	C143.7,94.2,143.7,96.9,143.3,99.9z"/>
<path class="st2" d="M135.2,99.5c-2.1,0.1-4.1,0.3-6.1,0.6c-0.5-3-0.6-5.7-0.2-7.8c0.4-2.1,1.2-3.5,2.2-3.5c1-0.1,2.1,1,2.8,3
	C134.6,93.7,135.1,96.5,135.2,99.5z"/>
<path class="st2" d="M127,100.5c-2,0.4-4,1-6,1.7c-1-2.8-1.5-5.4-1.5-7.4c0-2.1,0.5-3.6,1.6-3.9c1-0.3,2.3,0.6,3.3,2.4
	C125.5,95,126.4,97.5,127,100.5z"/>
<path class="st2" d="M119.2,102.8c-2,0.8-3.8,1.7-5.6,2.7c-1.3-2.5-2.3-4.9-2.6-6.8c-0.4-2-0.1-3.6,0.9-4.1c1-0.5,2.3,0.2,3.7,1.8
	C116.8,97.9,118.1,100.2,119.2,102.8z"/>
<path class="st2" d="M111.8,106.6c-1.8,1.1-3.5,2.4-5.1,3.7c-1.6-2.1-2.9-4.1-3.5-5.9c-0.7-2-0.7-3.5,0.1-4.2c0.8-0.7,2.3-0.2,3.9,1
	C108.7,102.4,110.3,104.3,111.8,106.6z"/>
<path class="st2" d="M105,111.7c-1.6,1.4-3.1,3-4.5,4.6c-1.8-1.6-3.3-3.3-4.1-4.9c-1.1-1.8-1.3-3.4-0.6-4.2c0.7-0.8,2.2-0.7,4,0.3
	C101.5,108.4,103.3,109.8,105,111.7z"/>
<path class="st2" d="M181.1,110.4c0.9,1.6,2.3,3.3,4.1,5c1.4-1.6,2.9-3.1,4.6-4.5c-1.7-1.9-3.5-3.4-5.1-4.3c-1.8-1-3.3-1.2-4-0.4
	C179.9,107,180.1,108.6,181.1,110.4z"/>
<path class="st2" d="M188,103.6c0.6,1.8,1.8,3.9,3.4,6c1.7-1.3,3.4-2.5,5.2-3.6c-1.4-2.3-3-4.3-4.5-5.5c-1.6-1.3-3-1.8-3.9-1.1
	C187.4,100,187.3,101.6,188,103.6z"/>
<path class="st2" d="M195.9,98.1c0.3,2,1.2,4.3,2.5,6.8c1.8-1,3.7-1.8,5.7-2.6c-1-2.7-2.3-5-3.6-6.6c-1.3-1.6-2.7-2.3-3.6-1.8
	C195.9,94.4,195.6,96.1,195.9,98.1z"/>
<path class="st2" d="M204.7,94.3c0,2.1,0.4,4.7,1.3,7.5c2-0.6,4-1.1,6-1.5c-0.5-2.9-1.4-5.5-2.4-7.3c-1-1.8-2.2-2.8-3.3-2.5
	C205.3,90.7,204.7,92.1,204.7,94.3z"/>
<path class="st2" d="M214,99.9c2-0.3,4.1-0.4,6.1-0.4c0-3-0.4-5.8-1.1-7.7c-0.7-2-1.7-3.2-2.8-3.1c-1,0.1-1.9,1.4-2.3,3.5
	C213.5,94.2,213.6,96.9,214,99.9z"/>
<path class="st2" d="M222.1,99.5c2.1,0.1,4.1,0.3,6.1,0.6c0.5-3,0.6-5.7,0.2-7.8c-0.4-2.1-1.2-3.5-2.2-3.5c-1-0.1-2.1,1-2.8,3
	C222.7,93.7,222.2,96.5,222.1,99.5z"/>
<path class="st2" d="M230.2,100.5c2,0.4,4,1,6,1.7c1-2.8,1.5-5.4,1.5-7.4c0-2.1-0.5-3.6-1.6-3.9c-1-0.3-2.3,0.6-3.3,2.4
	C231.7,95,230.8,97.5,230.2,100.5z"/>
<path class="st2" d="M238.1,102.8c2,0.8,3.8,1.7,5.6,2.7c1.3-2.5,2.3-4.9,2.6-6.8c0.4-2,0.1-3.6-0.9-4.1c-1-0.5-2.3,0.2-3.7,1.8
	C240.5,97.9,239.2,100.2,238.1,102.8z"/>
<path class="st2" d="M245.5,106.6c1.8,1.1,3.5,2.4,5.1,3.7c1.6-2.1,2.9-4.1,3.5-5.9c0.7-2,0.7-3.5-0.1-4.2c-0.8-0.7-2.3-0.2-3.9,1
	C248.6,102.4,247,104.3,245.5,106.6z"/>
<path class="st2" d="M252.2,111.7c1.6,1.4,3.1,3,4.5,4.6c1.8-1.6,3.3-3.3,4.1-4.9c1.1-1.8,1.3-3.4,0.6-4.2c-0.7-0.8-2.2-0.7-4,0.3
	C255.8,108.4,254,109.8,252.2,111.7z"/>
<polygon class="st4" points="178.7,13.5 80.8,39 178.7,64.5 276.5,39 "/>
<polygon class="st2" points="238.3,39 221,43.5 178.7,54.5 136.3,43.5 119,39 178.7,23.5 "/>
<polygon class="st2" points="221,43.5 178.7,54.5 136.3,43.5 178.7,32.4 "/>
<line class="st3" x1="276.5" y1="39" x2="276.5" y2="68.1"/>
<circle class="st4" cx="276.5" cy="68.1" r="12"/>
<path class="st8" d="M283.7,69c0,3.3-2.7,5.9-5.9,5.9"/>
<path class="st4" d="M193.5,169.3c0,1.7-0.7,3.8-1.7,6.1c-1.8,3.9-4.6,8.2-7.3,11.8c-3.2,4.3-5.9,7.5-5.9,7.5s-2.6-3-5.6-7.1
	c-2.7-3.6-5.7-8.1-7.5-12.1c-1.1-2.3-1.8-4.5-1.8-6.3c0-8.2,6.7-14.9,14.9-14.9C186.9,154.4,193.5,161.1,193.5,169.3z"/>
<path class="st2" d="M173.1,187.6c-2.7-3.6-5.7-8.1-7.5-12.1c2.4-0.9,5.6,0.8,7.5,4C174.7,182.5,174.7,185.9,173.1,187.6z"/>
<path class="st2" d="M191.8,175.4c-1.8,3.9-4.6,8.2-7.3,11.8c-1.3-1.9-1.2-4.9,0.4-7.7C186.7,176.6,189.5,175,191.8,175.4z"/>
<path class="st4" d="M151.8,314.1c-3.1-0.3-16.6-29.5,2.7-27.7S154.9,314.4,151.8,314.1z"/>
<path class="st4" d="M131,317.1c-2.8,1.3-29.4-16.8-11.9-25.1C136.6,283.6,133.8,315.7,131,317.1z"/>
<path class="st4" d="M140.7,316c-3.4,0.4-24.9-28.1-3.6-30.5S144.2,315.6,140.7,316z"/>
<path class="st4" d="M220.1,319.9c-2.8-1.4-4.6-33.6,12.7-24.7S222.8,321.3,220.1,319.9z"/>
<path class="st4" d="M199.6,315c-3.1,0.2-21.2-26.5-1.8-27.7C217.1,286,202.7,314.8,199.6,315z"/>
<path class="st4" d="M209.1,317.6c-3.3-0.9-12.8-35.3,7.9-29.7S212.4,318.4,209.1,317.6z"/>
<line class="st8" x1="178.7" y1="23.5" x2="178.7" y2="32.4"/>
<line class="st8" x1="113.9" y1="47.6" x2="113.9" y2="61.5"/>
<line class="st8" x1="123.7" y1="50.6" x2="123.7" y2="64.5"/>
<line class="st8" x1="134.2" y1="53.5" x2="134.2" y2="67.4"/>
<line class="st8" x1="245.6" y1="77.2" x2="245.6" y2="57.5"/>
<line class="st8" x1="238.3" y1="60.5" x2="238.3" y2="74.3"/>
<line class="st8" x1="230.8" y1="73.6" x2="230.8" y2="64.5"/>
<circle class="st2" cx="135.2" cy="146.7" r="30.4"/>
<circle class="st2" cx="222.1" cy="146.7" r="30.4"/>
<circle class="st4" cx="135.2" cy="146.7" r="22"/>
<line class="st8" x1="135.2" y1="146.7" x2="135.2" y2="124.7"/>
<line class="st8" x1="135.2" y1="146.7" x2="121" y2="129.8"/>
<line class="st8" x1="135.2" y1="146.7" x2="113.5" y2="142.9"/>
<line class="st8" x1="135.2" y1="146.7" x2="116.1" y2="157.7"/>
<line class="st8" x1="135.2" y1="146.7" x2="127.6" y2="167.4"/>
<line class="st8" x1="135.2" y1="146.7" x2="142.7" y2="167.4"/>
<line class="st8" x1="135.2" y1="146.7" x2="154.2" y2="157.7"/>
<line class="st8" x1="135.2" y1="146.7" x2="156.8" y2="142.9"/>
<line class="st8" x1="135.2" y1="146.7" x2="149.3" y2="129.8"/>
<circle cx="135.2" cy="146.7" r="6.5"/>
<circle class="st4" cx="222.1" cy="146.7" r="22"/>
<line class="st8" x1="222.1" y1="146.7" x2="222.1" y2="124.7"/>
<line class="st8" x1="222.1" y1="146.7" x2="208" y2="129.8"/>
<line class="st8" x1="222.1" y1="146.7" x2="200.4" y2="142.9"/>
<line class="st8" x1="222.1" y1="146.7" x2="203.1" y2="157.7"/>
<line class="st8" x1="222.1" y1="146.7" x2="214.6" y2="167.4"/>
<line class="st8" x1="222.1" y1="146.7" x2="229.7" y2="167.4"/>
<line class="st8" x1="222.1" y1="146.7" x2="241.2" y2="157.7"/>
<line class="st8" x1="222.1" y1="146.7" x2="243.8" y2="142.9"/>
<line class="st8" x1="222.1" y1="146.7" x2="236.3" y2="129.8"/>
<circle cx="222.1" cy="146.7" r="6.5"/>
<path class="st4" d="M86,249.9c-2.9-8.4-7.1-15.3-10.4-20.1c5.8-21.4,5.9-46.1,5.3-60.1C85.2,186.9,93.2,225.6,86,249.9z"/>
<path class="st4" d="M86,249.9c-0.4,1.5-0.9,2.9-1.5,4.3c-4.5,11-13,19.5-22.1,25.8c0.4-7.3-0.5-15.1-1.5-21.4
	c7-7.3,11.6-17.5,14.7-28.8C79,234.6,83.1,241.5,86,249.9z"/>
<path class="st4" d="M62.4,279.9c-6.3,4.4-12.9,7.8-18.6,10.3c1.3-2.2,2.5-4.6,3.6-7.3c1.5-4,2.6-10,3.5-17
	c3.8-1.8,7.2-4.4,10.1-7.4C62,264.8,62.8,272.7,62.4,279.9z"/>
<path class="st4" d="M50.8,265.9c1.5-11.7,2.2-26.4,3.3-40.1c0.9-11.7,2.1-22.7,4-30.6c2.5-10.3,9.3-17.5,15.9-22.4l0,0
	c2.3-1.6,4.5-3,6.6-4.1c0.1,0.3,0.2,0.6,0.2,0.9v0C81.9,194,81,251.4,50.8,265.9z"/>
<path class="st4" d="M111.7,262.8c0,6.1-5,11.1-11.1,11.1c-1.9,0-3.8-0.5-5.4-1.4c0,0.1-0.1,0.2-0.1,0.2c3.1,2,5.1,5.4,5.1,9.3
	c0,6.1-5,11.1-11.1,11.1c-3.1,0-5.9-1.3-7.9-3.3c-0.1,0.1-0.2,0.2-0.3,0.3c0.8,1.6,1.3,3.4,1.3,5.3c0,6.1-5,11.1-11.1,11.1
	c-4.1,0-7.6-2.2-9.6-5.5c-19.5,7.2-38.3,5.2-38.3,5.2c3.6-0.8,13.6-5,20.5-16c13.9-6,33.1-17.4,40.7-36c9.9-24.1,0.6-67.6-3.9-85.4
	c5.2-2.8,9.2-4,9.2-4s21.6,12.6,13.5,80.8c-0.3,2.2-0.6,4.3-1,6.3C107.7,252.7,111.7,257.3,111.7,262.8z"/>
<circle class="st2" cx="71.9" cy="296.9" r="3.8"/>
<circle class="st2" cx="90.4" cy="282.6" r="3.8"/>
<circle class="st2" cx="102.8" cy="263.3" r="3.8"/>
<path class="st4" d="M282,229.7c-3.3,4.8-7.4,11.8-10.4,20.1c-0.1-0.4-0.3-0.9-0.4-1.3c-0.1-0.4-0.2-0.9-0.4-1.4
	c-0.3-1.4-0.6-2.8-0.9-4.2c-0.1-0.5-0.2-1-0.2-1.4c-0.2-1.5-0.4-2.9-0.6-4.5c-0.1-1-0.2-2-0.3-3.1c-0.2-3.2-0.3-6.5-0.2-9.9
	c0,0,0,0,0,0c0-1.3,0-2.7,0.1-4c0.1-2.7,0.3-5.3,0.5-8c0.1-1.3,0.2-2.7,0.4-4c0.1-0.7,0.1-1.3,0.2-2c0.2-1.3,0.3-2.6,0.5-3.9v0
	c0.2-1.3,0.3-2.6,0.5-3.8c0.3-1.9,0.6-3.9,0.9-5.7c0.1-0.6,0.2-1.2,0.3-1.8c0.1-0.6,0.2-1.2,0.3-1.8c0.3-1.8,0.7-3.5,1-5.2
	c0.2-0.9,0.4-1.8,0.5-2.6c0-0.2,0.1-0.4,0.1-0.7c0.4-2,0.8-3.8,1.2-5.5c0.5-2,0.9-3.9,1.3-5.5c-0.2,4.4-0.3,9.8-0.2,15.8
	c0,0.7,0,1.5,0.1,2.3c0,0.8,0,1.5,0.1,2.3c0,0.3,0,0.6,0,1c0.1,1.5,0.1,2.9,0.2,4.4c0,1,0.1,2,0.2,3c0.1,1,0.1,2.1,0.2,3.1
	c0.1,0.8,0.1,1.5,0.2,2.3c0,0.2,0,0.4,0,0.5c0.1,1,0.2,2.1,0.3,3.1c0.2,1.7,0.4,3.4,0.6,5c0.1,0.5,0.2,1.1,0.2,1.6
	c0.2,1.4,0.5,2.9,0.7,4.3c0.1,0.5,0.2,1,0.3,1.6c0.2,1.2,0.5,2.4,0.7,3.6c0.1,0.5,0.2,1,0.3,1.5c0.1,0.5,0.2,1,0.4,1.6
	c0.1,0.6,0.3,1.2,0.5,1.8C281.7,228.9,281.8,229.3,282,229.7z"/>
<path class="st4" d="M295.2,279.9c-0.5-0.4-1.1-0.7-1.6-1.1c-0.1-0.1-0.3-0.2-0.4-0.3c-0.4-0.3-0.8-0.6-1.2-0.9
	c-0.4-0.3-0.8-0.7-1.2-1c-0.3-0.3-0.7-0.5-1-0.8c-1.9-1.6-3.8-3.3-5.5-5.1c-0.3-0.3-0.5-0.5-0.7-0.8c-0.2-0.3-0.5-0.5-0.7-0.8
	c-0.3-0.3-0.6-0.7-0.9-1c-0.4-0.5-0.8-0.9-1.2-1.4c-0.4-0.4-0.7-0.9-1.1-1.3c0,0,0-0.1-0.1-0.1c-0.4-0.5-0.7-1-1.1-1.5
	c0-0.1-0.1-0.1-0.1-0.2c-0.3-0.5-0.6-0.9-0.9-1.4c-0.3-0.5-0.7-1-1-1.6c-0.3-0.5-0.6-1.1-0.9-1.6c0,0,0,0,0-0.1
	c-0.3-0.5-0.5-0.9-0.8-1.4c-0.3-0.6-0.7-1.3-1-2c-0.2-0.5-0.5-1-0.7-1.6c-0.1-0.3-0.3-0.7-0.4-1c-0.1-0.4-0.3-0.7-0.4-1
	c-0.3-0.7-0.5-1.4-0.7-2.2c2.9-8.4,7.1-15.3,10.4-20.1c0.2,0.7,0.4,1.4,0.6,2.1c0.2,0.6,0.4,1.3,0.6,1.9c0,0.1,0.1,0.2,0.1,0.3
	c0.2,0.6,0.4,1.3,0.6,1.9c0.2,0.7,0.5,1.3,0.7,2c0.4,1.1,0.8,2.2,1.3,3.2c0.2,0.4,0.3,0.8,0.5,1.1c0.4,0.9,0.8,1.8,1.2,2.7
	c0.2,0.4,0.3,0.7,0.5,1.1c0.1,0.2,0.2,0.3,0.2,0.5c0.3,0.6,0.6,1.1,0.9,1.6c0.2,0.3,0.4,0.7,0.5,1c0.2,0.3,0.4,0.7,0.6,1
	c0.2,0.4,0.5,0.7,0.7,1.1c0.3,0.4,0.5,0.8,0.8,1.2c0.3,0.5,0.7,1,1.1,1.5c0,0.1,0.1,0.1,0.1,0.2c0.4,0.5,0.7,1,1.1,1.4
	c0.4,0.5,0.8,1,1.2,1.5c0.4,0.4,0.8,0.9,1.2,1.3c0,0,0.1,0.1,0.1,0.1C295.6,264.8,294.8,272.7,295.2,279.9z"/>
<path class="st4" d="M313.8,290.2L313.8,290.2c-0.7-0.3-1.4-0.6-2.2-1c-0.3-0.1-0.6-0.3-0.9-0.4c-0.3-0.2-0.6-0.3-1-0.5
	c-0.3-0.1-0.5-0.3-0.8-0.4c-0.2-0.1-0.5-0.2-0.7-0.4c-0.8-0.4-1.6-0.8-2.3-1.2c-0.4-0.2-0.9-0.5-1.3-0.7c-0.4-0.2-0.9-0.5-1.3-0.7
	c0,0-0.1,0-0.1-0.1c-0.3-0.2-0.6-0.3-0.9-0.5c-1.6-0.9-3.2-1.9-4.8-2.9c-0.4-0.3-0.8-0.5-1.2-0.8c-0.4-0.3-0.8-0.5-1.2-0.8
	c-0.4-7.3,0.5-15.1,1.5-21.4c0.4,0.4,0.7,0.8,1.1,1.1c0.3,0.3,0.6,0.5,0.9,0.8c0,0,0,0,0,0c0.4,0.4,0.9,0.8,1.3,1.2
	c0.2,0.2,0.5,0.4,0.7,0.6c0.2,0.1,0.3,0.3,0.5,0.4c0.2,0.1,0.3,0.3,0.5,0.4c0.3,0.2,0.5,0.4,0.8,0.5c0.2,0.1,0.4,0.3,0.6,0.4
	c0.4,0.3,0.8,0.5,1.1,0.7c0.3,0.2,0.7,0.4,1,0.6c0.1,0.1,0.2,0.1,0.3,0.2c0.5,0.2,0.9,0.5,1.4,0.7c0.9,7,2,12.9,3.5,17
	C311.2,285.6,312.5,288,313.8,290.2z"/>
<path class="st4" d="M306.7,265.9c-0.5-0.2-0.9-0.5-1.4-0.7c-0.1-0.1-0.2-0.1-0.3-0.2c-0.3-0.2-0.7-0.4-1-0.6
	c-0.4-0.2-0.8-0.5-1.1-0.7c-0.2-0.1-0.4-0.2-0.6-0.4c-0.3-0.2-0.5-0.4-0.8-0.5c-0.2-0.1-0.3-0.2-0.5-0.4c-0.2-0.1-0.3-0.3-0.5-0.4
	c-0.2-0.2-0.5-0.4-0.7-0.6c-0.4-0.4-0.9-0.8-1.3-1.2c0,0,0,0,0,0c-0.3-0.3-0.6-0.5-0.9-0.8c-0.4-0.4-0.8-0.7-1.1-1.1
	c0,0-0.1-0.1-0.1-0.1c-0.4-0.4-0.8-0.8-1.2-1.3c-0.4-0.5-0.8-1-1.2-1.5c-0.4-0.5-0.7-0.9-1.1-1.4c-0.1-0.1-0.1-0.1-0.1-0.2
	c-0.4-0.5-0.7-1-1.1-1.5c-0.3-0.4-0.5-0.8-0.8-1.2c-0.2-0.4-0.5-0.7-0.7-1.1c-0.2-0.3-0.4-0.7-0.6-1c-0.2-0.3-0.4-0.6-0.5-1
	c-0.3-0.5-0.6-1.1-0.9-1.6c-0.1-0.2-0.2-0.3-0.2-0.5c-0.2-0.4-0.4-0.7-0.5-1.1c-0.4-0.9-0.8-1.8-1.2-2.7c-0.2-0.4-0.3-0.8-0.5-1.1
	c-0.4-1-0.8-2.1-1.3-3.2c-0.2-0.7-0.5-1.3-0.7-2c-0.2-0.6-0.4-1.3-0.6-1.9c0-0.1-0.1-0.2-0.1-0.3c-0.2-0.6-0.4-1.3-0.6-1.9
	c-0.2-0.7-0.4-1.4-0.6-2.1c-0.1-0.4-0.2-0.8-0.3-1.3c-0.1-0.6-0.3-1.2-0.5-1.8c-0.1-0.5-0.3-1-0.4-1.6c-0.1-0.5-0.2-1-0.3-1.5
	c-0.3-1.2-0.5-2.4-0.7-3.6c-0.1-0.5-0.2-1-0.3-1.6c-0.3-1.4-0.5-2.9-0.7-4.3c-0.1-0.5-0.2-1.1-0.2-1.6c-0.2-1.7-0.4-3.4-0.6-5
	c-0.1-1-0.2-2.1-0.3-3.1c0-0.2,0-0.4,0-0.5c-0.1-0.8-0.1-1.5-0.2-2.3c-0.1-1-0.2-2.1-0.2-3.1c-0.1-1-0.1-2-0.2-3
	c-0.1-1.5-0.2-3-0.2-4.4c0-0.3,0-0.6,0-1c0-0.8-0.1-1.5-0.1-2.3c0-0.8,0-1.5-0.1-2.3c-0.1-6,0-11.5,0.2-15.8
	c0.1-0.3,0.2-0.6,0.2-0.9c2.1,1.1,4.3,2.5,6.6,4.1l0,0c6.6,4.8,13.4,12.1,15.9,22.4c1.9,7.9,3,18.9,4,30.6
	C304.5,239.6,305.3,254.2,306.7,265.9z"/>
<path class="st4" d="M334.3,306.2c0,0-18.8,2-38.3-5.2c-1.9,3.3-5.5,5.5-9.6,5.5c-6.1,0-11.1-5-11.1-11.1c0-1.9,0.5-3.7,1.3-5.3
	c-0.1-0.1-0.2-0.2-0.3-0.3c-2,2-4.8,3.3-7.9,3.3c-6.1,0-11.1-5-11.1-11.1c0-3.9,2-7.4,5.1-9.3c-0.1-0.1-0.1-0.2-0.1-0.2
	c-1.6,0.9-3.4,1.4-5.4,1.4c-6.1,0-11.1-5-11.1-11.1c0-5.5,4-10.1,9.3-11c-0.4-2-0.7-4.1-1-6.3c-8.2-68.3,13.5-80.9,13.5-80.9
	s4,1.2,9.2,4.1c-0.1,0.3-0.1,0.6-0.2,0.9c-0.4,1.7-0.9,3.5-1.3,5.5c-0.4,1.7-0.8,3.6-1.2,5.5c-0.1,0.2-0.1,0.4-0.1,0.7
	c-0.2,0.8-0.4,1.7-0.5,2.6c-0.3,1.7-0.7,3.4-1,5.2c-0.1,0.6-0.2,1.2-0.3,1.8c-0.1,0.6-0.2,1.2-0.3,1.8c-0.3,1.9-0.6,3.8-0.9,5.7
	c-0.2,1.3-0.4,2.5-0.5,3.8v0c-0.2,1.3-0.3,2.6-0.5,3.9c-0.1,0.7-0.1,1.3-0.2,2c-0.1,1.3-0.3,2.7-0.4,4c-0.2,2.7-0.4,5.3-0.5,8
	c-0.1,1.3-0.1,2.7-0.1,4c0,0,0,0,0,0c0,3.3,0,6.6,0.2,9.9c0.1,1,0.1,2,0.3,3.1c0.1,1.5,0.3,3,0.6,4.5c0.1,0.5,0.2,1,0.2,1.4
	c0.2,1.4,0.5,2.8,0.9,4.2c0.1,0.5,0.2,0.9,0.4,1.4c0.1,0.5,0.2,0.9,0.4,1.3c0.2,0.7,0.4,1.5,0.7,2.2c0.1,0.3,0.2,0.7,0.4,1
	c0.1,0.3,0.3,0.7,0.4,1c0.2,0.5,0.5,1.1,0.7,1.6c0.3,0.7,0.6,1.3,1,2c0.2,0.5,0.5,1,0.8,1.4c0,0,0,0.1,0,0.1
	c0.3,0.5,0.6,1.1,0.9,1.6c0.3,0.5,0.7,1,1,1.6c0.3,0.5,0.6,0.9,0.9,1.4c0,0,0.1,0.1,0.1,0.2c0.4,0.5,0.7,1,1.1,1.5
	c0,0,0.1,0.1,0.1,0.1c0.3,0.5,0.7,0.9,1.1,1.3c0.4,0.5,0.8,0.9,1.2,1.4c0.3,0.3,0.6,0.7,0.9,1c0.2,0.3,0.5,0.5,0.7,0.8
	c0.2,0.3,0.5,0.5,0.7,0.8c1.8,1.8,3.6,3.5,5.5,5.1c0.3,0.3,0.7,0.6,1,0.8c0.4,0.3,0.8,0.7,1.2,1c0.4,0.3,0.8,0.6,1.2,0.9
	c0.1,0.1,0.3,0.2,0.4,0.3c0.5,0.4,1,0.8,1.6,1.1c0.4,0.3,0.8,0.5,1.2,0.8c0.4,0.3,0.8,0.5,1.2,0.8c1.6,1,3.2,2,4.8,2.9
	c0.3,0.2,0.6,0.3,0.9,0.5c0,0,0.1,0,0.1,0.1c0.4,0.2,0.9,0.5,1.3,0.7c0.4,0.2,0.9,0.5,1.3,0.7c0.8,0.4,1.6,0.8,2.3,1.2
	c0.2,0.1,0.5,0.2,0.7,0.4c0.3,0.1,0.6,0.3,0.8,0.4c0.3,0.2,0.7,0.3,1,0.5c0.3,0.1,0.6,0.3,0.9,0.4c0.7,0.3,1.5,0.7,2.2,1
	C320.6,301.2,330.7,305.4,334.3,306.2z"/>
<circle class="st2" cx="285.7" cy="296.9" r="3.8"/>
<circle class="st2" cx="267.2" cy="282.6" r="3.8"/>
<circle class="st2" cx="254.8" cy="263.3" r="3.8"/>
<path class="st8" d="M121.8,204.5c-0.9,1.9-2.2,3.4-3.7,4c-0.8,0.3-1.6,0.5-2.4,0.4c-0.8-0.1-1.6-0.4-2.2-0.8
	c-1.3-1-1.9-2.7-1.7-4.3c0.2-1.7,1.3-3.4,2.8-4.7"/>
<path class="st8" d="M130.3,206.4c0.1,2.1-0.4,4-1.5,5.3c-0.5,0.6-1.2,1.1-2,1.4c-0.4,0.1-0.8,0.3-1.2,0.3c-0.4,0-0.8,0-1.2-0.1
	c-1.7-0.3-2.9-1.7-3.4-3.3c-0.4-1.7-0.1-3.6,0.8-5.5"/>
<path class="st8" d="M139.1,204.2c0.9,1.9,1.1,3.8,0.7,5.5c-0.4,1.7-1.6,2.9-3.2,3.3c-0.8,0.3-1.6,0.1-2.4-0.1
	c-0.8-0.3-1.5-0.7-2-1.3c-1.2-1.3-1.7-3.2-1.8-5.2"/>
<path class="st8" d="M226.8,211.6c-0.3,2-1,3.8-1.8,5c-0.9,1.2-2,1.8-3,1.5c-1-0.3-1.6-1.4-1.6-2.9c-0.1-1.5,0.4-3.3,1.2-5.2"/>
<path class="st8" d="M231.7,211.5c0.5,2,0.7,3.9,0.3,5.3c-0.1,0.4-0.2,0.7-0.4,1c-0.2,0.3-0.4,0.5-0.6,0.7c-0.4,0.4-1,0.7-1.5,0.7
	c-0.5,0-1.1-0.2-1.5-0.6c-0.4-0.4-0.8-1-1-1.7c-0.5-1.4-0.5-3.3-0.1-5.4"/>
<path class="st8" d="M235.2,209.4c1.6,1.4,2.8,2.8,3.3,4.3c0.3,0.7,0.3,1.4,0.1,2c-0.2,0.6-0.5,1.2-1,1.4c-0.5,0.3-1.1,0.4-1.8,0.3
	c-0.6-0.1-1.2-0.5-1.8-1.1c-1.1-1.1-1.8-2.8-2.3-4.8"/>
<path class="st8" d="M175.4,212.5c-0.6,2-1.5,3.7-2.7,4.7c-1.2,1-2.7,1.4-3.9,0.8c-1.2-0.5-2-1.9-2-3.5c-0.1-1.6,0.5-3.4,1.6-5.2"/>
<path class="st8" d="M182.5,213.1c0.3,2.1,0.1,4-0.7,5.4c-0.8,1.4-2.1,2.3-3.5,2.1c-1.4-0.1-2.5-1.2-3.1-2.7
	c-0.5-1.5-0.4-3.4,0.1-5.4"/>
<path class="st8" d="M188.6,210.5c1.3,1.6,2.2,3.3,2.2,5c0.1,1.6-0.7,3.1-2.1,3.7c-1.4,0.6-3,0.2-4.1-1c-1.1-1.1-1.8-3-2.1-5"/>
<path class="st8" d="M124.1,253.3c-1.4,1.5-3.1,2.5-4.8,2.6c-1.7,0.2-3.3-0.5-4.3-1.8c-1-1.3-1.1-3.1-0.5-4.6c0.6-1.6,2-3,3.8-4"/>
<path class="st8" d="M131.5,257.4c-0.3,2-1.1,3.8-2.5,4.9c-1.4,1-3.4,1.2-5,0.3c-1.6-0.9-2.4-2.6-2.3-4.3c0.1-1.7,1-3.5,2.4-5"/>
<path class="st8" d="M139.2,255.3c1.1,1.7,1.7,3.6,1.4,5.3c-0.1,0.4-0.2,0.8-0.4,1.2c-0.2,0.4-0.4,0.7-0.7,1.1
	c-0.5,0.7-1.4,1.1-2.2,1.4c-1.9,0.5-3.8-0.2-4.8-1.6c-1.1-1.4-1.3-3.4-1-5.4"/>
<path class="st8" d="M178.7,259.9c-0.2,2.1-1,3.9-2.4,5c-1.4,1.2-3.2,1.6-5,1.1c-1.8-0.5-3.1-1.9-3.6-3.6c-0.5-1.7-0.2-3.7,0.7-5.5"
	/>
<path class="st8" d="M188.5,258.4c0.9,1.8,1.2,3.9,0.5,5.5c-0.6,1.7-2.2,3-4.1,3.3c-2,0.3-3.8-0.5-4.9-1.9c-1.1-1.4-1.5-3.4-1.3-5.4
	"/>
<path class="st8" d="M195.8,251.6c1.7,1.1,3,2.7,3.4,4.4c0.2,0.9,0.2,1.8-0.1,2.6c-0.1,0.4-0.3,0.9-0.5,1.3
	c-0.3,0.4-0.6,0.8-0.9,1.1c-0.7,0.7-1.6,1.1-2.5,1.3c-0.9,0.2-1.8,0.2-2.7-0.1c-1.7-0.5-3.1-2-4-3.9"/>
<path class="st8" d="M226.8,260.5c-0.1,1-0.2,2-0.6,2.9c-0.3,0.9-0.9,1.6-1.6,2.1c-1.4,1.1-3.4,1.2-5,0.2c-1.6-1-2.3-2.8-2-4.4
	c0.2-1.7,1.4-3.3,3-4.6"/>
<path class="st8" d="M233.5,257.5c1.4,1.5,2.3,3.3,2.3,5c0,1.7-0.9,3.3-2.6,4.1c-1.7,0.8-3.8,0.4-5-0.9c-0.6-0.6-1-1.4-1.2-2.3
	c-0.2-0.9-0.2-1.9-0.2-2.9"/>
<path class="st8" d="M239.4,250.1c1.8,1.1,3.1,2.6,3.7,4.1c0.6,1.6,0.5,3.2-0.5,4.5c-1,1.3-2.6,1.8-4.3,1.6
	c-1.7-0.2-3.4-1.3-4.7-2.8"/>
<path class="st8" d="M197.3,278.8c0,0,6.3,7.9,8.5-0.8"/>
<path class="st8" d="M153.7,278c0,0,2.3,8.7,6.8,2"/>
<path class="st8" d="M168.3,286.3c0,0,3.5,10.7,8.8,2.7"/>
<path class="st8" d="M138.2,239.8c0,0,5,8.5,7.7,0"/>
<path class="st8" d="M157.2,246.3c0,0,4.2,6.2,6.6-1.3"/>
<path class="st8" d="M212.6,246.3c0,0,4.5,7.7,6.9,0.8"/>
<path class="st8" d="M236.8,235.6c0,0,6.1,5.2,6.4-3.8"/>
<path class="st8" d="M152.3,197.8c0,0,3.3,6.3,8.3,0"/>
<path class="st8" d="M204,202.5c0,0,5.7,5.6,7.3-1.8"/>
<path class="st8" d="M238.4,200.7c0,0,7.2,3.8,7.1-1.6"/>
<path class="st2" d="M147.5,211.3c0,0,2.2,4.8,6.2,0.7"/>
<path class="st8" d="M187.8,202.6c0,0,5.7,4.4,6.7-0.6"/>
<path class="st8" d="M18.3,332c0,0-11.3,2.4-9.7,3.7c1.7,1.3,27.4-1,63.2-6.3c35.8-5.3,81.8-6.3,81.8-6.3"/>
<path class="st8" d="M177,323c0,0,50.1,3.1,83.7,9c36.3,6.3,91.3,21,91.3,21c11,3.3,12-2.7,12-2.7"/>
<path class="st8" d="M295.3,326.7c21.5,4,63.7,15,63.7,15s5.7,6.7-8.3,1.7"/>
<path class="st8" d="M23.3,324.7c0,0,43.3-9,66.2-9.7"/>
<path class="st8" d="M117.5,298.3c0,0,2.8-3.5,6.6-3.6"/>
<path class="st8" d="M140.7,289.1c0,0,4.2,0,3.8,6.5c-0.4,6.5-3.8,14.4-3.8,14.4"/>
<path class="st8" d="M157.1,292c0,0,2.6,1.2,2.4,3.4"/>
<path class="st8" d="M192.4,295.4c0,0,2.2,7.9,4.8,11"/>
<path class="st8" d="M212.6,292c0,0-4.5,0.2-4.9,8.6"/>
<path class="st8" d="M233.5,300.6c0,0,3,4.7-8.4,13.4"/>
<circle class="st2" cx="21.9" cy="95" r="11.3"/>
<path class="st2" d="M21.9,75.3l2.2,11.4c0.6,2.8,2.1,5,4.2,5.8l8.2,3.1l-8.2,3.1c-2,0.8-3.6,3-4.2,5.8l-2.2,11.4l-2.2-11.4
	c-0.6-2.8-2.1-5-4.2-5.8l-8.2-3.1l8.2-3.1c2-0.8,3.6-3,4.2-5.8L21.9,75.3z"/>
<circle class="st2" cx="62.5" cy="30" r="9.4"/>
<path class="st2" d="M62.5,13.6l1.9,9.5c0.5,2.3,1.8,4.2,3.5,4.8l6.9,2.6L67.9,33c-1.7,0.6-3,2.5-3.5,4.8l-1.9,9.5l-1.9-9.5
	c-0.5-2.3-1.8-4.2-3.5-4.8l-6.9-2.6l6.9-2.6c1.7-0.6,3-2.5,3.5-4.8L62.5,13.6z"/>
<circle class="st2" cx="296.6" cy="22.7" r="7.8"/>
<path class="st2" d="M296.6,9.1l1.5,7.8c0.4,1.9,1.5,3.4,2.9,4l5.7,2.1l-5.7,2.1c-1.4,0.5-2.5,2-2.9,4l-1.5,7.8l-1.5-7.8
	c-0.4-1.9-1.5-3.4-2.9-4l-5.7-2.1l5.7-2.1c1.4-0.5,2.5-2,2.9-4L296.6,9.1z"/>
<circle class="st2" cx="348.2" cy="76.7" r="10.3"/>
<path class="st2" d="M348.2,58.8l2,10.4c0.5,2.6,2,4.6,3.8,5.3l7.5,2.8l-7.5,2.8c-1.9,0.7-3.3,2.7-3.8,5.3l-2,10.4l-2-10.4
	c-0.5-2.6-2-4.6-3.8-5.3l-7.5-2.8l7.5-2.8c1.9-0.7,3.3-2.7,3.8-5.3L348.2,58.8z"/>
<circle class="st4" cx="342.8" cy="162.5" r="17.7"/>
<path class="st2" d="M342.8,131.6l3.5,17.8c0.9,4.4,3.4,7.8,6.6,9l12.9,4.8l-12.9,4.8c-3.2,1.2-5.7,4.6-6.6,9l-3.5,17.8l-3.5-17.8
	c-0.9-4.4-3.4-7.8-6.6-9l-12.9-4.8l12.9-4.8c3.2-1.2,5.7-4.6,6.6-9L342.8,131.6z"/>
<circle class="st4" cx="27.9" cy="203.9" r="13.6"/>
<path class="st2" d="M27.9,180.1l2.7,13.7c0.7,3.4,2.6,6,5,7l10,3.7l-10,3.7c-2.5,0.9-4.4,3.6-5,7l-2.7,13.7l-2.7-13.7
	c-0.7-3.4-2.6-6-5-7l-10-3.7l10-3.7c2.5-0.9,4.4-3.6,5-7L27.9,180.1z"/>
<path class="st2" d="M310,62.5c-7.7,0-7.7,12,0,12C317.7,74.5,317.7,62.5,310,62.5z"/>
<path class="st2" d="M338,20.5c-7.7,0-7.7,12,0,12C345.7,32.5,345.7,20.5,338,20.5z"/>
<path class="st2" d="M257.5,9.5c-7.7,0-7.7,12,0,12C265.2,21.5,265.2,9.5,257.5,9.5z"/>
<path class="st2" d="M22.5,30.5c-7.7,0-7.7,12,0,12C30.2,42.5,30.2,30.5,22.5,30.5z"/>
<path class="st2" d="M53,65.5c-7.7,0-7.7,12,0,12C60.7,77.5,60.7,65.5,53,65.5z"/>
<path class="st2" d="M18.5,155c-7.7,0-7.7,12,0,12C26.2,167,26.2,155,18.5,155z"/>
<path class="st2" d="M354.5,115.5c-7.7,0-7.7,12,0,12C362.2,127.5,362.2,115.5,354.5,115.5z"/>
<path class="st2" d="M351.9,283.1c-7.7,0-7.7,12,0,12C359.6,295.1,359.6,283.1,351.9,283.1z"/>
<path class="st2" d="M333.4,314.7c-5.1,0-5.1,7.9,0,7.9C338.5,322.6,338.5,314.7,333.4,314.7z"/>
<path class="st2" d="M270.9,345.5c-5.1,0-5.1,7.9,0,7.9C276,353.4,276.1,345.5,270.9,345.5z"/>
<path class="st2" d="M291.6,357c-5.1,0-5.1,7.9,0,7.9C296.7,365,296.7,357,291.6,357z"/>
<path class="st2" d="M247.6,348c-7.7,0-7.7,12,0,12C255.4,360,255.4,348,247.6,348z"/>
<path class="st2" d="M116.5,9c-6.4,0-6.4,10,0,10C122.9,19,122.9,9,116.5,9z"/>
<path class="st2" d="M73,336.4c2.7,3.2-0.6,8.2-0.6,8.2s-5.5,2.4-8.2-0.8c-2.7-3.2-4.6-14.3-4.6-14.3S70.3,333.2,73,336.4z"/>
<path class="st8" d="M76.9,350.6c0,0-7.8-11-10.3-12.7"/>
<path class="st2" d="M71.1,353.3c3.7-1.8,7.8,2.6,7.8,2.6s0.9,5.9-2.8,7.7c-3.7,1.8-15,0.9-15,0.9S67.4,355.1,71.1,353.3z"/>
<path class="st8" d="M85.9,353.1c0,0-12.6,4.8-14.9,6.8"/>
</svg>
